<svg width="16" height="16" viewBox="0 0 16 16" fill="none" xmlns="http://www.w3.org/2000/svg">
<path d="M8 7.70834C6.93056 7.70834 6.05556 7.36806 5.375 6.68751C4.69444 6.00695 4.35417 5.13195 4.35417 4.06251C4.35417 2.99306 4.69444 2.11806 5.375 1.43751C6.05556 0.756949 6.93056 0.416672 8 0.416672C9.06944 0.416672 9.94792 0.756949 10.6354 1.43751C11.3229 2.11806 11.6667 2.99306 11.6667 4.06251C11.6667 5.13195 11.3229 6.00695 10.6354 6.68751C9.94792 7.36806 9.06944 7.70834 8 7.70834ZM13.2292 15.4583H2.77083C2.21528 15.4583 1.75 15.2674 1.375 14.8854C1 14.5035 0.8125 14.0417 0.8125 13.5V12.9375C0.8125 12.3264 0.972222 11.7882 1.29167 11.3229C1.61111 10.8576 2.02083 10.507 2.52083 10.2708C3.47917 9.84028 4.40625 9.51737 5.30208 9.30209C6.19792 9.08681 7.09722 8.97917 8 8.97917C8.91667 8.97917 9.81944 9.09028 10.7083 9.3125C11.5972 9.53473 12.5139 9.85417 13.4583 10.2708C13.9861 10.4931 14.4097 10.8368 14.7292 11.3021C15.0486 11.7674 15.2083 12.3125 15.2083 12.9375V13.5C15.2083 14.0417 15.0174 14.5035 14.6354 14.8854C14.2535 15.2674 13.7847 15.4583 13.2292 15.4583ZM2.77083 13.5H13.2292V13.0208C13.2292 12.8125 13.1632 12.6111 13.0312 12.4167C12.8993 12.2222 12.7361 12.0764 12.5417 11.9792C11.7083 11.5903 10.941 11.3229 10.2396 11.1771C9.53819 11.0313 8.79167 10.9583 8 10.9583C7.22222 10.9583 6.46875 11.0313 5.73958 11.1771C5.01042 11.3229 4.24306 11.5903 3.4375 11.9792C3.24306 12.0764 3.08333 12.2222 2.95833 12.4167C2.83333 12.6111 2.77083 12.8125 2.77083 13.0208V13.5ZM8 5.75001C8.48611 5.75001 8.88889 5.59028 9.20833 5.27084C9.52778 4.95139 9.6875 4.54862 9.6875 4.06251C9.6875 3.56251 9.52778 3.15626 9.20833 2.84376C8.88889 2.53126 8.48611 2.37501 8 2.37501C7.51389 2.37501 7.11111 2.53126 6.79167 2.84376C6.47222 3.15626 6.3125 3.56251 6.3125 4.06251C6.3125 4.54862 6.47222 4.95139 6.79167 5.27084C7.11111 5.59028 7.51389 5.75001 8 5.75001Z" fill="#2771C5"/>
</svg>
