<svg width="40" height="48" viewBox="0 0 40 48" fill="none" xmlns="http://www.w3.org/2000/svg">
<path d="M21.0519 47.0731L20.8436 40.2502L18.604 40.1981C13.4998 39.7814 9.20296 37.672 5.71338 33.87C2.2238 30.0679 0.479004 25.5974 0.479004 20.4585C0.479004 15.0071 2.41477 10.363 6.28629 6.5262C10.1578 2.6894 14.8366 0.770996 20.3228 0.770996C23.0311 0.770996 25.5484 1.26579 27.8748 2.25537C30.2012 3.24495 32.2238 4.61648 33.9425 6.36996C35.6613 8.12343 37.0155 10.1981 38.005 12.5939C38.9946 14.9897 39.4894 17.5939 39.4894 20.4064C39.4894 25.8231 37.762 30.8752 34.3071 35.5627C30.8523 40.2502 26.4339 44.087 21.0519 47.0731ZM20.3748 33.0106C21.0693 33.0106 21.6596 32.7675 22.1457 32.2814C22.6318 31.7953 22.8748 31.205 22.8748 30.5106C22.8748 29.8509 22.6318 29.2779 22.1457 28.7918C21.6596 28.3057 21.0693 28.0627 20.3748 28.0627C19.6804 28.0627 19.0901 28.3057 18.604 28.7918C18.1179 29.2779 17.8748 29.8509 17.8748 30.5106C17.8748 31.205 18.1179 31.7953 18.604 32.2814C19.0901 32.7675 19.6804 33.0106 20.3748 33.0106ZM20.2707 25.5627C20.6873 25.5627 21.0693 25.4064 21.4165 25.0939C21.7637 24.7814 22.0241 24.3647 22.1978 23.8439C22.3366 23.3925 22.571 22.9498 22.9009 22.5158C23.2307 22.0818 23.6561 21.6217 24.1769 21.1356C25.1491 20.1286 25.8349 19.2345 26.2342 18.4533C26.6335 17.672 26.8332 16.7779 26.8332 15.771C26.8332 14.0349 26.295 12.62 25.2186 11.5262C24.1422 10.4325 22.6144 9.88558 20.6353 9.88558C19.3158 9.88558 18.1092 10.1981 17.0155 10.8231C15.9217 11.4481 15.0276 12.2814 14.3332 13.3231C14.0207 13.7397 13.9686 14.1911 14.1769 14.6772C14.3853 15.1634 14.7325 15.4932 15.2186 15.6668C15.6005 15.8057 16.0085 15.8057 16.4425 15.6668C16.8766 15.5279 17.2672 15.2502 17.6144 14.8335C17.9616 14.3474 18.3783 14.0002 18.8644 13.7918C19.3505 13.5835 19.854 13.4793 20.3748 13.4793C21.2776 13.4793 21.9807 13.679 22.4842 14.0783C22.9877 14.4776 23.2394 15.0418 23.2394 15.771C23.2394 16.3266 23.0484 16.9342 22.6665 17.5939C22.2846 18.2536 21.6596 19.0349 20.7915 19.9377C20.0971 20.6668 19.5675 21.3092 19.203 21.8647C18.8384 22.4203 18.604 23.0627 18.4998 23.7918C18.4304 24.2779 18.578 24.6946 18.9425 25.0418C19.3071 25.3891 19.7498 25.5627 20.2707 25.5627ZM25.4269 35.4064V38.6356C28.2741 36.2397 30.505 33.4099 32.1196 30.146C33.7342 26.8821 34.5415 23.6356 34.5415 20.4064C34.5415 16.1009 33.196 12.5766 30.505 9.8335C27.8141 7.09044 24.42 5.71891 20.3228 5.71891C16.1561 5.71891 12.6231 7.15989 9.72379 10.0418C6.82449 12.9238 5.37484 16.4134 5.37484 20.5106C5.37484 24.6425 6.82449 28.1581 9.72379 31.0575C12.6231 33.9568 16.1214 35.4064 20.2186 35.4064H25.4269Z" fill="white"/>
</svg>
