<svg width="157" height="186" viewBox="0 0 157 186" fill="none" xmlns="http://www.w3.org/2000/svg">
<path d="M83.2084 185.292L82.375 158L73.4167 157.792C53 156.125 35.8125 147.688 21.8542 132.479C7.89585 117.271 0.916687 99.3889 0.916687 78.8334C0.916687 57.0278 8.65974 38.4514 24.1459 23.1042C39.632 7.75698 58.3472 0.083374 80.2917 0.083374C91.125 0.083374 101.194 2.06254 110.5 6.02087C119.806 9.97921 127.896 15.4653 134.771 22.4792C141.646 29.4931 147.063 37.7917 151.021 47.375C154.979 56.9584 156.958 67.375 156.958 78.625C156.958 100.292 150.049 120.5 136.229 139.25C122.41 158 104.736 173.347 83.2084 185.292ZM80.5 129.042C83.2778 129.042 85.6389 128.069 87.5833 126.125C89.5278 124.181 90.5 121.819 90.5 119.042C90.5 116.403 89.5278 114.111 87.5833 112.167C85.6389 110.222 83.2778 109.25 80.5 109.25C77.7222 109.25 75.3611 110.222 73.4167 112.167C71.4722 114.111 70.5 116.403 70.5 119.042C70.5 121.819 71.4722 124.181 73.4167 126.125C75.3611 128.069 77.7222 129.042 80.5 129.042ZM80.0834 99.25C81.75 99.25 83.2778 98.625 84.6667 97.375C86.0556 96.125 87.0972 94.4584 87.7917 92.375C88.3472 90.5695 89.2847 88.7987 90.6042 87.0625C91.9236 85.3264 93.625 83.4862 95.7084 81.5417C99.5972 77.5139 102.34 73.9375 103.938 70.8125C105.535 67.6875 106.333 64.1112 106.333 60.0834C106.333 53.1389 104.181 47.4792 99.875 43.1042C95.5695 38.7292 89.4583 36.5417 81.5417 36.5417C76.2639 36.5417 71.4375 37.7917 67.0625 40.2917C62.6875 42.7917 59.1111 46.125 56.3334 50.2917C55.0834 51.9584 54.875 53.7639 55.7084 55.7084C56.5417 57.6528 57.9306 58.9723 59.875 59.6667C61.4028 60.2223 63.0347 60.2223 64.7709 59.6667C66.507 59.1112 68.0695 58 69.4584 56.3334C70.8472 54.3889 72.5139 53 74.4584 52.1667C76.4028 51.3334 78.4167 50.9167 80.5 50.9167C84.1111 50.9167 86.9236 51.7153 88.9375 53.3125C90.9514 54.9098 91.9583 57.1667 91.9583 60.0834C91.9583 62.3056 91.1945 64.7362 89.6667 67.375C88.1389 70.0139 85.6389 73.1389 82.1667 76.75C79.3889 79.6667 77.2708 82.2362 75.8125 84.4584C74.3542 86.6806 73.4167 89.25 73 92.1667C72.7222 94.1112 73.3125 95.7778 74.7708 97.1667C76.2292 98.5556 78 99.25 80.0834 99.25ZM100.708 138.625V151.542C112.097 141.958 121.021 130.639 127.479 117.583C133.938 104.528 137.167 91.5417 137.167 78.625C137.167 61.4028 131.785 47.3056 121.021 36.3334C110.257 25.3612 96.6806 19.875 80.2917 19.875C63.625 19.875 49.4931 25.6389 37.8959 37.1667C26.2986 48.6945 20.5 62.6528 20.5 79.0417C20.5 95.5695 26.2986 109.632 37.8959 121.229C49.4931 132.826 63.4861 138.625 79.875 138.625H100.708Z" fill="#E9EBF5"/>
</svg>
