<svg width="17" height="20" viewBox="0 0 17 20" fill="none" xmlns="http://www.w3.org/2000/svg">
<path d="M9.02085 19.2292L8.93752 16.5L8.04169 16.4792C6.00002 16.3125 4.28127 15.4687 2.88544 13.9479C1.4896 12.4271 0.791687 10.6389 0.791687 8.58333C0.791687 6.40277 1.56599 4.54513 3.1146 3.01041C4.66321 1.47569 6.53474 0.708328 8.72919 0.708328C9.81252 0.708328 10.8195 0.906245 11.75 1.30208C12.6806 1.69791 13.4896 2.24652 14.1771 2.94791C14.8646 3.6493 15.4063 4.47916 15.8021 5.4375C16.1979 6.39583 16.3959 7.43749 16.3959 8.56249C16.3959 10.7292 15.7049 12.75 14.3229 14.625C12.941 16.5 11.1736 18.0347 9.02085 19.2292ZM8.75002 13.6042C9.0278 13.6042 9.26391 13.5069 9.45835 13.3125C9.6528 13.1181 9.75002 12.8819 9.75002 12.6042C9.75002 12.3403 9.6528 12.1111 9.45835 11.9167C9.26391 11.7222 9.0278 11.625 8.75002 11.625C8.47224 11.625 8.23613 11.7222 8.04169 11.9167C7.84724 12.1111 7.75002 12.3403 7.75002 12.6042C7.75002 12.8819 7.84724 13.1181 8.04169 13.3125C8.23613 13.5069 8.47224 13.6042 8.75002 13.6042ZM8.70835 10.625C8.87502 10.625 9.0278 10.5625 9.16669 10.4375C9.30557 10.3125 9.40974 10.1458 9.47919 9.9375C9.53474 9.75694 9.62849 9.57986 9.76044 9.40625C9.89238 9.23263 10.0625 9.04861 10.2709 8.85416C10.6597 8.45138 10.934 8.09374 11.0938 7.78124C11.2535 7.46874 11.3334 7.11111 11.3334 6.70833C11.3334 6.01388 11.1181 5.44791 10.6875 5.01041C10.257 4.57291 9.64585 4.35416 8.85419 4.35416C8.32641 4.35416 7.84377 4.47916 7.40627 4.72916C6.96877 4.97916 6.61113 5.3125 6.33335 5.72916C6.20835 5.89583 6.18752 6.07638 6.27085 6.27083C6.35419 6.46527 6.49308 6.59722 6.68752 6.66666C6.8403 6.72222 7.00349 6.72222 7.1771 6.66666C7.35071 6.61111 7.50697 6.5 7.64585 6.33333C7.78474 6.13888 7.95141 6 8.14585 5.91666C8.3403 5.83333 8.54169 5.79166 8.75002 5.79166C9.11113 5.79166 9.39238 5.87152 9.59377 6.03125C9.79516 6.19097 9.89585 6.41666 9.89585 6.70833C9.89585 6.93055 9.81946 7.17361 9.66669 7.4375C9.51391 7.70138 9.26391 8.01388 8.91669 8.375C8.63891 8.66666 8.4271 8.92361 8.28127 9.14583C8.13544 9.36805 8.04169 9.62499 8.00002 9.91666C7.97224 10.1111 8.03127 10.2778 8.1771 10.4167C8.32294 10.5556 8.50002 10.625 8.70835 10.625ZM10.7709 14.5625V15.8542C11.9097 14.8958 12.8021 13.7639 13.4479 12.4583C14.0938 11.1528 14.4167 9.85416 14.4167 8.56249C14.4167 6.84027 13.8785 5.43055 12.8021 4.33333C11.7257 3.23611 10.3681 2.68749 8.72919 2.68749C7.06252 2.68749 5.64933 3.26388 4.4896 4.41666C3.32988 5.56944 2.75002 6.96527 2.75002 8.60416C2.75002 10.2569 3.32988 11.6632 4.4896 12.8229C5.64933 13.9826 7.04863 14.5625 8.68752 14.5625H10.7709Z" fill="#2771C5"/>
</svg>
