<svg width="26" height="28" viewBox="0 0 26 28" fill="none" xmlns="http://www.w3.org/2000/svg">
<path d="M13 16.6875C12.6042 16.6875 12.2656 16.5521 11.9844 16.2812C11.7031 16.0104 11.5625 15.6667 11.5625 15.25C11.5625 14.8542 11.6979 14.5156 11.9688 14.2344C12.2396 13.9531 12.5833 13.8125 13 13.8125C13.3958 13.8125 13.7344 13.9479 14.0156 14.2188C14.2969 14.4896 14.4375 14.8333 14.4375 15.25C14.4375 15.6458 14.3021 15.9844 14.0312 16.2656C13.7604 16.5469 13.4167 16.6875 13 16.6875ZM8 16.6875C7.60417 16.6875 7.26562 16.5521 6.98438 16.2812C6.70312 16.0104 6.5625 15.6667 6.5625 15.25C6.5625 14.8542 6.69792 14.5156 6.96875 14.2344C7.23958 13.9531 7.58333 13.8125 8 13.8125C8.39583 13.8125 8.73438 13.9479 9.01562 14.2188C9.29688 14.4896 9.4375 14.8333 9.4375 15.25C9.4375 15.6458 9.30208 15.9844 9.03125 16.2656C8.76042 16.5469 8.41667 16.6875 8 16.6875ZM18 16.6875C17.625 16.6875 17.2917 16.5521 17 16.2812C16.7083 16.0104 16.5625 15.6667 16.5625 15.25C16.5625 14.8542 16.7083 14.5156 17 14.2344C17.2917 13.9531 17.625 13.8125 18 13.8125C18.3958 13.8125 18.7344 13.9479 19.0156 14.2188C19.2969 14.4896 19.4375 14.8333 19.4375 15.25C19.4375 15.6458 19.3021 15.9844 19.0312 16.2656C18.7604 16.5469 18.4167 16.6875 18 16.6875ZM13 21.6875C12.6042 21.6875 12.2656 21.5417 11.9844 21.25C11.7031 20.9583 11.5625 20.625 11.5625 20.25C11.5625 19.8542 11.6979 19.5156 11.9688 19.2344C12.2396 18.9531 12.5833 18.8125 13 18.8125C13.3958 18.8125 13.7344 18.9479 14.0156 19.2187C14.2969 19.4896 14.4375 19.8333 14.4375 20.25C14.4375 20.625 14.3021 20.9583 14.0312 21.25C13.7604 21.5417 13.4167 21.6875 13 21.6875ZM8 21.6875C7.60417 21.6875 7.26562 21.5417 6.98438 21.25C6.70312 20.9583 6.5625 20.625 6.5625 20.25C6.5625 19.8542 6.69792 19.5156 6.96875 19.2344C7.23958 18.9531 7.58333 18.8125 8 18.8125C8.39583 18.8125 8.73438 18.9479 9.01562 19.2187C9.29688 19.4896 9.4375 19.8333 9.4375 20.25C9.4375 20.625 9.30208 20.9583 9.03125 21.25C8.76042 21.5417 8.41667 21.6875 8 21.6875ZM18 21.6875C17.625 21.6875 17.2917 21.5417 17 21.25C16.7083 20.9583 16.5625 20.625 16.5625 20.25C16.5625 19.8542 16.7083 19.5156 17 19.2344C17.2917 18.9531 17.625 18.8125 18 18.8125C18.3958 18.8125 18.7344 18.9479 19.0156 19.2187C19.2969 19.4896 19.4375 19.8333 19.4375 20.25C19.4375 20.625 19.3021 20.9583 19.0312 21.25C18.7604 21.5417 18.4167 21.6875 18 21.6875ZM3.90625 27.2812C3.09375 27.2812 2.40104 26.9948 1.82812 26.4219C1.25521 25.849 0.96875 25.1562 0.96875 24.3438V5.53125C0.96875 4.71875 1.25521 4.02083 1.82812 3.4375C2.40104 2.85417 3.09375 2.5625 3.90625 2.5625H5.65625V1.96875C5.65625 1.63542 5.78646 1.33854 6.04688 1.07812C6.30729 0.817708 6.60417 0.6875 6.9375 0.6875C7.29167 0.6875 7.59375 0.817708 7.84375 1.07812C8.09375 1.33854 8.21875 1.63542 8.21875 1.96875V2.5625H17.7812V1.96875C17.7812 1.63542 17.9115 1.33854 18.1719 1.07812C18.4323 0.817708 18.7292 0.6875 19.0625 0.6875C19.4167 0.6875 19.7188 0.817708 19.9688 1.07812C20.2188 1.33854 20.3438 1.63542 20.3438 1.96875V2.5625H22.0938C22.9062 2.5625 23.6042 2.85417 24.1875 3.4375C24.7708 4.02083 25.0625 4.71875 25.0625 5.53125V24.3438C25.0625 25.1562 24.7708 25.849 24.1875 26.4219C23.6042 26.9948 22.9062 27.2812 22.0938 27.2812H3.90625ZM3.90625 24.3438H22.0938V11.1875H3.90625V24.3438ZM3.90625 9.3125H22.0938V5.53125H3.90625V9.3125Z" fill="#5CA9F0"/>
</svg>
