<svg width="18" height="18" viewBox="0 0 18 18" fill="none" xmlns="http://www.w3.org/2000/svg">
<path d="M5.97921 17.5417C5.56254 17.5417 5.20837 17.3958 4.91671 17.1042C4.62504 16.8125 4.47921 16.4583 4.47921 16.0417C4.47921 15.625 4.62504 15.2708 4.91671 14.9792C5.20837 14.6875 5.56254 14.5417 5.97921 14.5417C6.38199 14.5417 6.73268 14.6875 7.03129 14.9792C7.3299 15.2708 7.47921 15.625 7.47921 16.0417C7.47921 16.4583 7.33337 16.8125 7.04171 17.1042C6.75004 17.3958 6.39587 17.5417 5.97921 17.5417ZM14.3125 17.5417C13.8959 17.5417 13.5417 17.3958 13.25 17.1042C12.9584 16.8125 12.8125 16.4583 12.8125 16.0417C12.8125 15.625 12.9584 15.2708 13.25 14.9792C13.5417 14.6875 13.8959 14.5417 14.3125 14.5417C14.7153 14.5417 15.066 14.6875 15.3646 14.9792C15.6632 15.2708 15.8125 15.625 15.8125 16.0417C15.8125 16.4583 15.6667 16.8125 15.375 17.1042C15.0834 17.3958 14.7292 17.5417 14.3125 17.5417ZM5.29171 3.79167L7.22921 7.83333H13.1667L15.3542 3.79167H5.29171ZM5.77087 13.2083C5.07643 13.2083 4.5799 12.9722 4.28129 12.5C3.98268 12.0278 3.9931 11.5139 4.31254 10.9583L5.58337 8.625L2.54171 2.14583H1.66671C1.4306 2.14583 1.23268 2.0625 1.07296 1.89583C0.913235 1.72917 0.833374 1.52778 0.833374 1.29167C0.833374 1.05556 0.916707 0.854167 1.08337 0.6875C1.25004 0.520833 1.45143 0.4375 1.68754 0.4375H3.02087C3.21532 0.4375 3.38893 0.486111 3.54171 0.583333C3.69449 0.680556 3.81254 0.8125 3.89587 0.979167L4.41671 2.08333H16.0834C16.8334 2.08333 17.2882 2.28125 17.448 2.67708C17.6077 3.07292 17.5417 3.54861 17.25 4.10417L14.7917 8.5625C14.625 8.84028 14.4028 9.07639 14.125 9.27083C13.8473 9.46528 13.5348 9.5625 13.1875 9.5625H7.02087L6.00004 11.5H15.2084C15.4445 11.5 15.6424 11.5833 15.8021 11.75C15.9618 11.9167 16.0417 12.1181 16.0417 12.3542C16.0417 12.5903 15.9584 12.7917 15.7917 12.9583C15.625 13.125 15.4237 13.2083 15.1875 13.2083H5.77087Z" fill="#2771C5"/>
</svg>
