<svg width="28" height="28" viewBox="0 0 28 28" fill="none" xmlns="http://www.w3.org/2000/svg">
<path d="M12.625 16.9375H14.375C15.0625 16.9375 15.6094 16.7292 16.0156 16.3125C16.4219 15.8958 16.625 15.3542 16.625 14.6875V8.46875C16.625 7.80208 16.4219 7.26042 16.0156 6.84375C15.6094 6.42708 15.0625 6.21875 14.375 6.21875H12.375C11.7083 6.21875 11.1719 6.42708 10.7656 6.84375C10.3594 7.26042 10.1562 7.80208 10.1562 8.46875V10.4688C10.1562 11.1354 10.3594 11.6771 10.7656 12.0938C11.1719 12.5104 11.7083 12.7188 12.375 12.7188H14.375V14.6875H12.625C12.3125 14.6875 12.0521 14.7969 11.8437 15.0156C11.6354 15.2344 11.5312 15.5 11.5312 15.8125C11.5312 16.1458 11.6354 16.4167 11.8437 16.625C12.0521 16.8333 12.3125 16.9375 12.625 16.9375ZM14.375 10.4688H12.375V8.46875H14.375V10.4688ZM20.7812 12.375V13.8125C20.7812 14.0833 20.8698 14.3021 21.0469 14.4688C21.224 14.6354 21.4479 14.7188 21.7188 14.7188C21.9688 14.7188 22.1875 14.6354 22.375 14.4688C22.5625 14.3021 22.6562 14.0833 22.6562 13.8125V12.375H23.9688C24.2188 12.375 24.4323 12.2865 24.6094 12.1094C24.7865 11.9323 24.875 11.7083 24.875 11.4375C24.875 11.1667 24.7865 10.9427 24.6094 10.7656C24.4323 10.5885 24.2188 10.5 23.9688 10.5H22.6562V9.15625C22.6562 8.90625 22.5625 8.69271 22.375 8.51562C22.1875 8.33854 21.9583 8.25 21.6875 8.25C21.4375 8.25 21.224 8.33854 21.0469 8.51562C20.8698 8.69271 20.7812 8.90625 20.7812 9.15625V10.5H19.4375C19.1875 10.5 18.974 10.5885 18.7969 10.7656C18.6198 10.9427 18.5312 11.1667 18.5312 11.4375C18.5312 11.7083 18.6198 11.9323 18.7969 12.1094C18.974 12.2865 19.1875 12.375 19.4375 12.375H20.7812ZM7.9375 23C7.125 23 6.43229 22.7135 5.85938 22.1406C5.28646 21.5677 5 20.875 5 20.0625V3.125C5 2.3125 5.28646 1.61458 5.85938 1.03125C6.43229 0.447917 7.125 0.15625 7.9375 0.15625H24.875C25.6875 0.15625 26.3854 0.447917 26.9688 1.03125C27.5521 1.61458 27.8438 2.3125 27.8438 3.125V20.0625C27.8438 20.875 27.5521 21.5677 26.9688 22.1406C26.3854 22.7135 25.6875 23 24.875 23H7.9375ZM7.9375 20.0625H24.875V3.125H7.9375V20.0625ZM3.125 27.8438C2.3125 27.8438 1.61458 27.5521 1.03125 26.9688C0.447917 26.3854 0.15625 25.6875 0.15625 24.875V6.4375C0.15625 6.04167 0.307292 5.70312 0.609375 5.42187C0.911458 5.14062 1.27083 5 1.6875 5C2.08333 5 2.42188 5.14062 2.70313 5.42187C2.98438 5.70312 3.125 6.05208 3.125 6.46875V24.875H21.5625C21.9583 24.875 22.2969 25.026 22.5781 25.3281C22.8594 25.6302 23 25.9688 23 26.3438C23 26.7812 22.8594 27.1406 22.5781 27.4219C22.2969 27.7031 21.9479 27.8438 21.5312 27.8438H3.125Z" fill="#5CA9F0"/>
</svg>
