<svg width="30" height="30" viewBox="0 0 30 30" fill="none" xmlns="http://www.w3.org/2000/svg">
<path d="M18.5333 20.5665C18.8 20.8554 19.1278 20.9942 19.5167 20.9831C19.9056 20.972 20.2445 20.822 20.5333 20.5331C20.8445 20.2442 21 19.8998 21 19.4998C21 19.0998 20.8556 18.7665 20.5667 18.4998L16.4667 14.3998V9.36647C16.4667 8.98869 16.3389 8.67203 16.0833 8.41647C15.8278 8.16092 15.5 8.03314 15.1 8.03314C14.7222 8.03314 14.4 8.16092 14.1333 8.41647C13.8667 8.67203 13.7333 8.99981 13.7333 9.39981V14.9331C13.7333 15.1331 13.7722 15.3276 13.85 15.5165C13.9278 15.7054 14.0333 15.8776 14.1667 16.0331L18.5333 20.5665ZM15 29.1665C13.0445 29.1665 11.2056 28.7942 9.48334 28.0498C7.76112 27.3054 6.26112 26.2943 4.98334 25.0165C3.70557 23.7387 2.69445 22.2387 1.95001 20.5165C1.20557 18.7943 0.833344 16.9554 0.833344 14.9998C0.833344 13.0442 1.20557 11.2054 1.95001 9.48314C2.69445 7.76092 3.70557 6.26092 4.98334 4.98314C6.26112 3.70536 7.76112 2.68869 9.48334 1.93314C11.2056 1.17758 13.0445 0.799805 15 0.799805C16.9556 0.799805 18.7945 1.17758 20.5167 1.93314C22.2389 2.68869 23.7389 3.70536 25.0167 4.98314C26.2945 6.26092 27.3111 7.76092 28.0667 9.48314C28.8222 11.2054 29.2 13.0442 29.2 14.9998C29.2 16.9554 28.8222 18.7943 28.0667 20.5165C27.3111 22.2387 26.2945 23.7387 25.0167 25.0165C23.7389 26.2943 22.2389 27.3054 20.5167 28.0498C18.7945 28.7942 16.9556 29.1665 15 29.1665ZM14.9667 26.0331C18.0111 26.0331 20.6167 24.9609 22.7833 22.8165C24.95 20.672 26.0333 18.0665 26.0333 14.9998C26.0333 11.9554 24.95 9.35536 22.7833 7.19981C20.6167 5.04425 18.0222 3.96647 15 3.96647C11.9556 3.96647 9.35557 5.04425 7.20001 7.19981C5.04445 9.35536 3.96668 11.9554 3.96668 14.9998C3.96668 18.0665 5.04445 20.672 7.20001 22.8165C9.35557 24.9609 11.9445 26.0331 14.9667 26.0331Z" fill="#5CA9F0"/>
</svg>
