<svg width="30" height="22" viewBox="0 0 30 22" fill="none" xmlns="http://www.w3.org/2000/svg">
<path d="M5.90625 21.7188C4.40625 21.7188 3.15104 21.1875 2.14062 20.125C1.13021 19.0625 0.614583 17.8229 0.59375 16.4062C0.59375 16.2188 0.604167 16.0052 0.625 15.7656C0.645833 15.526 0.6875 15.3125 0.75 15.125L3.375 4.59375C3.70833 3.34375 4.39063 2.3125 5.42188 1.5C6.45312 0.6875 7.61458 0.28125 8.90625 0.28125H21.0938C22.3854 0.28125 23.5469 0.6875 24.5781 1.5C25.6094 2.3125 26.3021 3.34375 26.6562 4.59375L29.2812 15.0937C29.3229 15.3229 29.3594 15.5521 29.3906 15.7812C29.4219 16.0104 29.4375 16.2292 29.4375 16.4375C29.4375 17.875 28.9271 19.1146 27.9062 20.1562C26.8854 21.1979 25.6146 21.7188 24.0938 21.7188C23.0937 21.7188 22.1562 21.4531 21.2812 20.9219C20.4062 20.3906 19.75 19.6667 19.3125 18.75L18.4375 16.9375C18.3958 16.875 18.3385 16.8229 18.2656 16.7812C18.1927 16.7396 18.0938 16.7188 17.9688 16.7188H12.0312C11.9271 16.7188 11.8333 16.7396 11.75 16.7812C11.6667 16.8229 11.6042 16.875 11.5625 16.9375L10.6875 18.75C10.25 19.6667 9.59896 20.3906 8.73438 20.9219C7.86979 21.4531 6.92708 21.7188 5.90625 21.7188ZM6 18.7812C6.39583 18.7812 6.77604 18.6719 7.14062 18.4531C7.50521 18.2344 7.8125 17.9062 8.0625 17.4687L8.9375 15.6875C9.20833 15.0833 9.625 14.6146 10.1875 14.2812C10.75 13.9479 11.3646 13.7812 12.0312 13.7812H17.9688C18.6354 13.7812 19.2448 13.9531 19.7969 14.2969C20.349 14.6406 20.7917 15.1042 21.125 15.6875L22 17.4687C22.25 17.9062 22.5521 18.2344 22.9062 18.4531C23.2604 18.6719 23.6354 18.7812 24.0312 18.7812C24.6354 18.7812 25.1875 18.5677 25.6875 18.1406C26.1875 17.7135 26.4479 17.1562 26.4687 16.4688C26.4687 16.3854 26.4583 16.2812 26.4375 16.1562C26.4167 16.0312 26.3958 15.9167 26.375 15.8125L23.75 5.34375C23.6042 4.71875 23.2865 4.20833 22.7969 3.8125C22.3073 3.41667 21.7396 3.21875 21.0938 3.21875H8.90625C8.26042 3.21875 7.69271 3.41667 7.20312 3.8125C6.71354 4.20833 6.39583 4.71875 6.25 5.34375L3.625 15.8125C3.64583 15.7917 3.61458 16 3.53125 16.4375C3.53125 17.125 3.78646 17.6875 4.29688 18.125C4.80729 18.5625 5.375 18.7812 6 18.7812ZM16.875 9.4375C16.625 9.4375 16.4062 9.34375 16.2188 9.15625C16.0312 8.96875 15.9375 8.73958 15.9375 8.46875C15.9375 8.21875 16.0312 8.00521 16.2188 7.82812C16.4062 7.65104 16.6354 7.5625 16.9062 7.5625C17.1562 7.5625 17.3698 7.65104 17.5469 7.82812C17.724 8.00521 17.8125 8.22917 17.8125 8.5C17.8125 8.75 17.724 8.96875 17.5469 9.15625C17.3698 9.34375 17.1458 9.4375 16.875 9.4375ZM19.375 6.9375C19.125 6.9375 18.9062 6.84375 18.7188 6.65625C18.5312 6.46875 18.4375 6.23958 18.4375 5.96875C18.4375 5.71875 18.5312 5.50521 18.7188 5.32813C18.9062 5.15104 19.1354 5.0625 19.4062 5.0625C19.6562 5.0625 19.8698 5.15104 20.0469 5.32813C20.224 5.50521 20.3125 5.72917 20.3125 6C20.3125 6.25 20.224 6.46875 20.0469 6.65625C19.8698 6.84375 19.6458 6.9375 19.375 6.9375ZM19.375 11.9375C19.125 11.9375 18.9062 11.8437 18.7188 11.6562C18.5312 11.4687 18.4375 11.2396 18.4375 10.9688C18.4375 10.7188 18.5312 10.5052 18.7188 10.3281C18.9062 10.151 19.1354 10.0625 19.4062 10.0625C19.6562 10.0625 19.8698 10.151 20.0469 10.3281C20.224 10.5052 20.3125 10.7292 20.3125 11C20.3125 11.25 20.224 11.4687 20.0469 11.6562C19.8698 11.8437 19.6458 11.9375 19.375 11.9375ZM21.875 9.4375C21.625 9.4375 21.4062 9.34375 21.2188 9.15625C21.0312 8.96875 20.9375 8.73958 20.9375 8.46875C20.9375 8.21875 21.0312 8.00521 21.2188 7.82812C21.4062 7.65104 21.6354 7.5625 21.9062 7.5625C22.1562 7.5625 22.3698 7.65104 22.5469 7.82812C22.724 8.00521 22.8125 8.22917 22.8125 8.5C22.8125 8.75 22.724 8.96875 22.5469 9.15625C22.3698 9.34375 22.1458 9.4375 21.875 9.4375ZM10.625 11.4688C10.4167 11.4688 10.2344 11.3906 10.0781 11.2344C9.92188 11.0781 9.84375 10.8958 9.84375 10.6875V9.28125H8.4375C8.22917 9.28125 8.04688 9.20312 7.89062 9.04688C7.73438 8.89062 7.65625 8.70833 7.65625 8.5C7.65625 8.29167 7.73438 8.10938 7.89062 7.95312C8.04688 7.79688 8.22917 7.71875 8.4375 7.71875H9.84375V6.3125C9.84375 6.10417 9.92188 5.92188 10.0781 5.76562C10.2344 5.60938 10.4167 5.53125 10.625 5.53125C10.8333 5.53125 11.0156 5.60938 11.1719 5.76562C11.3281 5.92188 11.4062 6.10417 11.4062 6.3125V7.71875H12.8125C13.0208 7.71875 13.2031 7.79688 13.3594 7.95312C13.5156 8.10938 13.5938 8.29167 13.5938 8.5C13.5938 8.70833 13.5156 8.89062 13.3594 9.04688C13.2031 9.20312 13.0208 9.28125 12.8125 9.28125H11.4062V10.6875C11.4062 10.8958 11.3281 11.0781 11.1719 11.2344C11.0156 11.3906 10.8333 11.4688 10.625 11.4688Z" fill="#5CA9F0"/>
</svg>
