<svg width="28" height="26" viewBox="0 0 28 26" fill="none" xmlns="http://www.w3.org/2000/svg">
<path d="M2.40625 25.0312C1.98958 25.0312 1.64063 24.8906 1.35938 24.6094C1.07813 24.3281 0.9375 23.9792 0.9375 23.5625C0.9375 23.1458 1.07813 22.7969 1.35938 22.5156C1.64063 22.2344 1.98958 22.0938 2.40625 22.0938H4.15625V2.4375C4.15625 2.02083 4.29688 1.66667 4.57813 1.375C4.85938 1.08333 5.20833 0.9375 5.625 0.9375H16.75C17.0625 0.9375 17.3385 1.02604 17.5781 1.20313C17.8177 1.38021 17.9896 1.60417 18.0938 1.875V2.34375H22.4063C22.8229 2.34375 23.1719 2.48958 23.4531 2.78125C23.7344 3.07292 23.875 3.42708 23.875 3.84375V22.0938H25.5938C26.0104 22.0938 26.3646 22.2344 26.6562 22.5156C26.9479 22.7969 27.0938 23.1458 27.0938 23.5625C27.0938 23.9792 26.9479 24.3281 26.6562 24.6094C26.3646 24.8906 26.0104 25.0312 25.5938 25.0312H22.4063C21.9896 25.0312 21.6406 24.8906 21.3594 24.6094C21.0781 24.3281 20.9375 23.9792 20.9375 23.5625V5.3125H18.2188V23.5625C18.2188 23.9792 18.0781 24.3281 17.7969 24.6094C17.5156 24.8906 17.1667 25.0312 16.75 25.0312H2.40625ZM13.8438 13C13.8438 12.6042 13.7083 12.2656 13.4375 11.9844C13.1667 11.7031 12.8333 11.5625 12.4375 11.5625C12.0208 11.5625 11.6719 11.7031 11.3906 11.9844C11.1094 12.2656 10.9688 12.6042 10.9688 13C10.9688 13.3958 11.1094 13.7344 11.3906 14.0156C11.6719 14.2969 12.0104 14.4375 12.4062 14.4375C12.8229 14.4375 13.1667 14.2969 13.4375 14.0156C13.7083 13.7344 13.8438 13.3958 13.8438 13ZM7.09375 22.0938H15.25V3.90625H7.09375V22.0938Z" fill="#5CA9F0"/>
</svg>
