<svg width="30" height="30" viewBox="0 0 30 30" fill="none" xmlns="http://www.w3.org/2000/svg">
<path d="M15 29.0999C13.0444 29.0999 11.2111 28.7332 9.49999 27.9999C7.78888 27.2666 6.29444 26.261 5.01666 24.9832C3.73888 23.7055 2.73333 22.211 1.99999 20.4999C1.26666 18.7888 0.899994 16.9555 0.899994 14.9999C0.899994 13.0443 1.26666 11.211 1.99999 9.4999C2.73333 7.78879 3.73888 6.29435 5.01666 5.01657C6.29444 3.73879 7.78888 2.73324 9.49999 1.9999C11.2111 1.26657 13.0444 0.899902 15 0.899902C16.9555 0.899902 18.7889 1.26657 20.5 1.9999C22.2111 2.73324 23.7055 3.73879 24.9833 5.01657C26.2611 6.29435 27.2667 7.78879 28 9.4999C28.7333 11.211 29.1 13.0443 29.1 14.9999V16.7666C29.1 18.211 28.6167 19.3721 27.65 20.2499C26.6833 21.1277 25.4667 21.5666 24 21.5666C23.1111 21.5666 22.2944 21.3555 21.55 20.9332C20.8056 20.511 20.2556 19.9332 19.9 19.1999C19.3667 20.0221 18.6722 20.6221 17.8167 20.9999C16.9611 21.3777 16.0222 21.5666 15 21.5666C13.1778 21.5666 11.6222 20.9332 10.3333 19.6666C9.04444 18.3999 8.39999 16.8443 8.39999 14.9999C8.39999 13.1555 9.04444 11.5888 10.3333 10.2999C11.6222 9.01101 13.1778 8.36657 15 8.36657C16.8444 8.36657 18.4055 9.00546 19.6833 10.2832C20.9611 11.561 21.6 13.1332 21.6 14.9999V16.5332C21.6 17.1777 21.8333 17.7221 22.3 18.1666C22.7667 18.611 23.3333 18.8332 24 18.8332C24.6444 18.8332 25.1944 18.611 25.65 18.1666C26.1055 17.7221 26.3333 17.1777 26.3333 16.5332V14.9999C26.3333 11.8221 25.2389 9.13879 23.05 6.9499C20.8611 4.76101 18.1778 3.66657 15 3.66657C11.8444 3.66657 9.16666 4.76657 6.96666 6.96657C4.76666 9.16657 3.66666 11.8443 3.66666 14.9999C3.66666 18.1777 4.76111 20.861 6.94999 23.0499C9.13888 25.2388 11.8222 26.3332 15 26.3332H20.7667C21.1444 26.3332 21.4667 26.4666 21.7333 26.7332C22 26.9999 22.1333 27.3221 22.1333 27.6999C22.1333 28.0999 22 28.4332 21.7333 28.6999C21.4667 28.9666 21.1444 29.0999 20.7667 29.0999H15ZM15 18.8332C16.0667 18.8332 16.9778 18.461 17.7333 17.7166C18.4889 16.9721 18.8667 16.0666 18.8667 14.9999C18.8667 13.9332 18.4889 13.0166 17.7333 12.2499C16.9778 11.4832 16.0667 11.0999 15 11.0999C13.9333 11.0999 13.0222 11.4832 12.2667 12.2499C11.5111 13.0166 11.1333 13.9332 11.1333 14.9999C11.1333 16.0666 11.5111 16.9721 12.2667 17.7166C13.0222 18.461 13.9333 18.8332 15 18.8332Z" fill="#5CA9F0"/>
</svg>
