<svg width="32" height="32" viewBox="0 0 32 32" fill="none" xmlns="http://www.w3.org/2000/svg">
<g clip-path="url(#clip0_108_880)">
<rect width="32" height="32" rx="16" fill="#FFCB05"/>
<rect x="2.5" y="2.5" width="27" height="27" rx="13.5" stroke="#034C9E" stroke-width="3"/>
<path d="M10.9023 8.99609V23H6.54688V8.99609H10.9023ZM21.459 13.0684C21.3874 12.9186 21.306 12.7721 21.2148 12.6289C20.6354 11.7044 19.9388 11.2422 19.125 11.2422C18.3112 11.2422 17.6146 11.7077 17.0352 12.6387C16.4557 13.5632 16.166 14.6829 16.166 15.998C16.166 17.3132 16.4557 18.4362 17.0352 19.3672C17.6146 20.2917 18.3112 20.7539 19.125 20.7539C19.9388 20.7539 20.6354 20.2884 21.2148 19.3574C21.625 18.7064 21.8887 17.9577 22.0059 17.1113H18.3828V14.8652H26.3516V14.875C26.4102 15.2396 26.4395 15.6139 26.4395 15.998C26.4395 17.9316 25.7266 19.582 24.3008 20.9492C22.875 22.3164 21.1562 23 19.1445 23C17.1328 23 15.4141 22.3164 13.9883 20.9492C12.5625 19.582 11.8496 17.9316 11.8496 15.998C11.8496 14.0645 12.5625 12.4141 13.9883 11.0469C15.4141 9.67969 17.1328 8.99609 19.1445 8.99609C21.1562 8.99609 22.875 9.67969 24.3008 11.0469C24.9388 11.6654 25.4368 12.3392 25.7949 13.0684H21.459Z" fill="#034C9E"/>
</g>
<defs>
<clipPath id="clip0_108_880">
<rect width="32" height="32" fill="white"/>
</clipPath>
</defs>
</svg>
