<svg width="28" height="25" viewBox="0 0 28 25" fill="none" xmlns="http://www.w3.org/2000/svg">
<path d="M12 23.5312L10.2812 21.9375C7.71875 19.6042 5.48438 17.3177 3.57812 15.0781C1.67187 12.8385 0.71875 10.4479 0.71875 7.90625C0.71875 5.80208 1.41667 4.04167 2.8125 2.625C4.20833 1.20833 5.94792 0.5 8.03125 0.5C9.07292 0.5 10.1042 0.723958 11.125 1.17187C12.1458 1.61979 13.0938 2.38542 13.9688 3.46875C14.9479 2.38542 15.9167 1.61979 16.875 1.17187C17.8333 0.723958 18.8438 0.5 19.9062 0.5C22.0104 0.5 23.7708 1.20833 25.1875 2.625C26.6042 4.04167 27.3125 5.80208 27.3125 7.90625C27.3125 10.4479 26.3438 12.8385 24.4062 15.0781C22.4688 17.3177 20.2292 19.6146 17.6875 21.9688L16 23.5312C15.4167 24.0521 14.7448 24.3125 13.9844 24.3125C13.224 24.3125 12.5625 24.0521 12 23.5312ZM13 6.78125C12.5208 5.84375 11.8125 5.05208 10.875 4.40625C9.9375 3.76042 8.98958 3.4375 8.03125 3.4375C6.73958 3.4375 5.6875 3.85417 4.875 4.6875C4.0625 5.52083 3.65625 6.59375 3.65625 7.90625C3.65625 9.07292 4.04688 10.3021 4.82812 11.5938C5.60938 12.8854 6.54688 14.1406 7.64062 15.3594C8.73438 16.5781 9.86979 17.7135 11.0469 18.7656C12.224 19.8177 13.1979 20.6979 13.9688 21.4062C14.7396 20.6979 15.7135 19.8125 16.8906 18.75C18.0677 17.6875 19.2083 16.5469 20.3125 15.3281C21.4167 14.1094 22.3698 12.8594 23.1719 11.5781C23.974 10.2969 24.375 9.07292 24.375 7.90625C24.375 6.59375 23.9531 5.52083 23.1094 4.6875C22.2656 3.85417 21.1979 3.4375 19.9062 3.4375C18.9271 3.4375 17.974 3.75521 17.0469 4.39063C16.1198 5.02604 15.4063 5.82292 14.9062 6.78125C14.8021 6.98958 14.6615 7.14062 14.4844 7.23438C14.3073 7.32812 14.125 7.375 13.9375 7.375C13.7292 7.375 13.5469 7.32812 13.3906 7.23438C13.2344 7.14062 13.1042 6.98958 13 6.78125Z" fill="#5CA9F0"/>
</svg>
