<svg width="18" height="17" viewBox="0 0 18 17" fill="none" xmlns="http://www.w3.org/2000/svg">
<path d="M7.66671 16.0208L6.52087 14.9583C4.81254 13.4028 3.32296 11.8785 2.05212 10.3854C0.781291 8.89237 0.145874 7.29862 0.145874 5.60417C0.145874 4.20139 0.611152 3.02778 1.54171 2.08334C2.47226 1.13889 3.63199 0.666672 5.02087 0.666672C5.71532 0.666672 6.40282 0.815977 7.08337 1.11459C7.76393 1.4132 8.39587 1.92362 8.97921 2.64584C9.63198 1.92362 10.2778 1.4132 10.9167 1.11459C11.5556 0.815977 12.2292 0.666672 12.9375 0.666672C14.3403 0.666672 15.5139 1.13889 16.4584 2.08334C17.4028 3.02778 17.875 4.20139 17.875 5.60417C17.875 7.29862 17.2292 8.89237 15.9375 10.3854C14.6459 11.8785 13.1528 13.4097 11.4584 14.9792L10.3334 16.0208C9.94449 16.3681 9.49657 16.5417 8.98962 16.5417C8.48268 16.5417 8.04171 16.3681 7.66671 16.0208ZM8.33337 4.85417C8.01393 4.22917 7.54171 3.70139 6.91671 3.27084C6.29171 2.84028 5.65976 2.62501 5.02087 2.62501C4.15976 2.62501 3.45837 2.90278 2.91671 3.45834C2.37504 4.01389 2.10421 4.72917 2.10421 5.60417C2.10421 6.38195 2.36462 7.20139 2.88546 8.0625C3.40629 8.92362 4.03129 9.76042 4.76046 10.5729C5.48962 11.3854 6.24657 12.1424 7.03129 12.8438C7.81601 13.5451 8.46532 14.1319 8.97921 14.6042C9.4931 14.1319 10.1424 13.5417 10.9271 12.8333C11.7118 12.125 12.4723 11.3646 13.2084 10.5521C13.9445 9.73959 14.5799 8.90625 15.1146 8.05209C15.6493 7.19792 15.9167 6.38195 15.9167 5.60417C15.9167 4.72917 15.6355 4.01389 15.073 3.45834C14.5105 2.90278 13.7987 2.62501 12.9375 2.62501C12.2848 2.62501 11.6493 2.83681 11.0313 3.26042C10.4132 3.68403 9.93754 4.21528 9.60421 4.85417C9.53476 4.99306 9.44101 5.09375 9.32296 5.15625C9.2049 5.21875 9.08337 5.25 8.95837 5.25C8.81949 5.25 8.69796 5.21875 8.59379 5.15625C8.48962 5.09375 8.40282 4.99306 8.33337 4.85417Z" fill="#2771C5"/>
</svg>
