<svg width="28" height="28" viewBox="0 0 28 28" fill="none" xmlns="http://www.w3.org/2000/svg">
<path d="M14 27.2812C12.1458 27.2812 10.4115 26.9375 8.79688 26.25C7.18229 25.5625 5.77604 24.6146 4.57812 23.4062C3.38021 22.1979 2.4375 20.7812 1.75 19.1562C1.0625 17.5312 0.71875 15.7917 0.71875 13.9375C0.71875 12.0833 1.0625 10.349 1.75 8.73438C2.4375 7.11979 3.38021 5.71875 4.57812 4.53125C5.77604 3.34375 7.18229 2.40625 8.79688 1.71875C10.4115 1.03125 12.1458 0.6875 14 0.6875C15.8542 0.6875 17.5885 1.03125 19.2031 1.71875C20.8177 2.40625 22.224 3.34375 23.4219 4.53125C24.6198 5.71875 25.5677 7.11979 26.2656 8.73438C26.9635 10.349 27.3125 12.0833 27.3125 13.9375C27.3125 15.7917 26.9635 17.5312 26.2656 19.1562C25.5677 20.7812 24.6198 22.1979 23.4219 23.4062C22.224 24.6146 20.8177 25.5625 19.2031 26.25C17.5885 26.9375 15.8542 27.2812 14 27.2812ZM13.9688 24.4375C14.6354 23.7083 15.2083 22.8698 15.6875 21.9219C16.1667 20.974 16.5729 19.8333 16.9062 18.5H11.125C11.3958 19.75 11.7708 20.8646 12.25 21.8438C12.7292 22.8229 13.3021 23.6875 13.9688 24.4375ZM11.4062 24.0625C10.8646 23.3125 10.4219 22.4792 10.0781 21.5625C9.73438 20.6458 9.4375 19.625 9.1875 18.5H4.625C5.375 19.9583 6.26042 21.099 7.28125 21.9219C8.30208 22.7448 9.67708 23.4583 11.4062 24.0625ZM16.5625 24.0312C18.0208 23.5729 19.3385 22.8698 20.5156 21.9219C21.6927 20.974 22.6354 19.8333 23.3438 18.5H18.8438C18.5729 19.6042 18.2604 20.6146 17.9062 21.5312C17.5521 22.4479 17.1042 23.2812 16.5625 24.0312ZM4.03125 16.7188H8.84375C8.78125 16.1562 8.74479 15.6562 8.73438 15.2188C8.72396 14.7812 8.71875 14.3542 8.71875 13.9375C8.71875 13.4167 8.72917 12.9635 8.75 12.5781C8.77083 12.1927 8.8125 11.75 8.875 11.25H4.03125C3.88542 11.75 3.78646 12.1875 3.73438 12.5625C3.68229 12.9375 3.65625 13.3958 3.65625 13.9375C3.65625 14.4583 3.68229 14.9271 3.73438 15.3437C3.78646 15.7604 3.88542 16.2188 4.03125 16.7188ZM10.7812 16.7188H17.25C17.3125 16.0729 17.349 15.5521 17.3594 15.1562C17.3698 14.7604 17.375 14.3542 17.375 13.9375C17.375 13.5208 17.3698 13.1302 17.3594 12.7656C17.349 12.401 17.3125 11.8958 17.25 11.25H10.7812C10.6979 11.8958 10.6458 12.401 10.625 12.7656C10.6042 13.1302 10.5938 13.5208 10.5938 13.9375C10.5938 14.3542 10.6042 14.7604 10.625 15.1562C10.6458 15.5521 10.6979 16.0729 10.7812 16.7188ZM19.125 16.7188H23.9375C24.0625 16.2188 24.1562 15.7604 24.2188 15.3437C24.2812 14.9271 24.3125 14.4583 24.3125 13.9375C24.3125 13.3958 24.2812 12.9375 24.2188 12.5625C24.1562 12.1875 24.0625 11.75 23.9375 11.25H19.1562C19.1771 12 19.1979 12.5521 19.2188 12.9062C19.2396 13.2604 19.25 13.6042 19.25 13.9375C19.25 14.375 19.2344 14.7917 19.2031 15.1875C19.1719 15.5833 19.1458 16.0938 19.125 16.7188ZM18.8125 9.4375H23.3438C22.6771 8.04167 21.7552 6.86979 20.5781 5.92188C19.401 4.97396 18.0521 4.3125 16.5312 3.9375C17.0729 4.6875 17.5208 5.50521 17.875 6.39062C18.2292 7.27604 18.5417 8.29167 18.8125 9.4375ZM11.125 9.4375H16.9375C16.7292 8.375 16.3542 7.32812 15.8125 6.29688C15.2708 5.26563 14.6563 4.375 13.9688 3.625C13.3646 4.16667 12.8385 4.88542 12.3906 5.78125C11.9427 6.67708 11.5208 7.89583 11.125 9.4375ZM4.625 9.4375H9.21875C9.44792 8.35417 9.72396 7.375 10.0469 6.5C10.3698 5.625 10.8125 4.78125 11.375 3.96875C9.83333 4.34375 8.49479 4.98958 7.35938 5.90625C6.22396 6.82292 5.3125 8 4.625 9.4375Z" fill="#5CA9F0"/>
</svg>
