<svg width="353" height="60" viewBox="0 0 353 60" fill="none" xmlns="http://www.w3.org/2000/svg">
<path d="M30 4H323C337.359 4 349 15.6406 349 30C349 44.3594 337.359 56 323 56H30C15.6406 56 4 44.3594 4 30C4 15.6406 15.6406 4 30 4Z" stroke="white" stroke-width="8" stroke-linejoin="round"/>
<path d="M35.9141 14.9922V43H27.2031V14.9922H35.9141Z" fill="white"/>
<path d="M53.8438 29.6797C53.8438 28.2083 53.4466 27.2253 52.6523 26.7305C51.8581 26.2227 51.1224 25.9688 50.4453 25.9688C49.7292 25.9688 48.9674 26.2227 48.1602 26.7305C47.3659 27.2253 46.9688 28.2083 46.9688 29.6797V36.6328C46.9688 38.1432 47.3659 39.1523 48.1602 39.6602C48.9674 40.1549 49.7292 40.4023 50.4453 40.4023C51.1224 40.4023 51.8581 40.1549 52.6523 39.6602C53.4466 39.1523 53.8438 38.1432 53.8438 36.6328V29.6797ZM53.8438 41.8672C52.1641 43 50.0807 43.5664 47.5938 43.5664C45.1198 43.5664 42.8607 42.6419 40.8164 40.793C38.7721 38.944 37.75 36.3333 37.75 32.9609C37.75 31.6589 38.0299 30.3763 38.5898 29.1133C39.1628 27.8503 39.9375 26.737 40.9141 25.7734C41.9167 24.7578 43.1146 23.957 44.5078 23.3711C45.5625 22.9544 46.6758 22.7461 47.8477 22.7461C48.1862 22.7461 48.5443 22.7656 48.9219 22.8047C49.9375 22.8828 50.8424 23.0911 51.6367 23.4297C52.431 23.7682 53.1667 24.1263 53.8438 24.5039V23H62.5547V40.6562C62.5547 42.0885 62.2357 43.4297 61.5977 44.6797C60.9596 45.9427 60.0872 47.0299 58.9805 47.9414C57.8997 48.8919 56.6107 49.6341 55.1133 50.168C53.6289 50.7148 52.0469 50.9883 50.3672 50.9883C48.7005 50.9883 47.1315 50.7148 45.6602 50.168C44.1888 49.6341 42.8932 48.8919 41.7734 47.9414C40.7708 47.082 39.957 46.0664 39.332 44.8945H47.0273C47.0924 46.1445 47.4505 47.069 48.1016 47.668C48.8177 48.332 49.599 48.6641 50.4453 48.6641C51.2786 48.6641 52.0534 48.332 52.7695 47.668C53.4857 47.0169 53.8438 45.9753 53.8438 44.543V41.8672Z" fill="white"/>
<path d="M74.4297 43.8789H74.1172C73.362 43.8789 72.4766 43.7552 71.4609 43.5078C70.3281 43.2083 69.2344 42.681 68.1797 41.9258C67.1771 41.2096 66.2982 40.2201 65.543 38.957C64.8659 37.7331 64.5273 36.2422 64.5273 34.4844V23.5664H73.2383V36.3008C73.2383 37.1862 73.6029 38.0065 74.332 38.7617C75.0742 39.5169 76.0573 39.8945 77.2812 39.8945C78.4531 39.8945 79.4362 39.5169 80.2305 38.7617C81.0378 38.0065 81.4414 37.1862 81.4414 36.3008V23.5664H90.1523V43H81.4414V40.9688C80.5951 41.776 79.5729 42.4531 78.375 43C77.1771 43.5469 75.862 43.8398 74.4297 43.8789Z" fill="white"/>
<path d="M116.812 23V43H108.102V41.8672C106.422 43 104.339 43.5664 101.852 43.5664C99.3776 43.5664 97.1185 42.6419 95.0742 40.793C93.0299 38.944 92.0078 36.3333 92.0078 32.9609C92.0078 31.6589 92.2878 30.3763 92.8477 29.1133C93.4206 27.8503 94.1953 26.737 95.1719 25.7734C96.1745 24.7578 97.3724 23.957 98.7656 23.3711C99.8203 22.9544 100.934 22.7461 102.105 22.7461C102.444 22.7461 102.802 22.7656 103.18 22.8047C104.195 22.8828 105.1 23.0911 105.895 23.4297C106.689 23.7682 107.424 24.1263 108.102 24.5039V23H116.812ZM108.102 29.6797C108.102 28.2083 107.704 27.2253 106.91 26.7305C106.116 26.2227 105.38 25.9688 104.703 25.9688C103.987 25.9688 103.225 26.2227 102.418 26.7305C101.624 27.2253 101.227 28.2083 101.227 29.6797V36.6328C101.227 38.1432 101.624 39.1523 102.418 39.6602C103.225 40.1549 103.987 40.4023 104.703 40.4023C105.38 40.4023 106.116 40.1549 106.91 39.6602C107.704 39.1523 108.102 38.1432 108.102 36.6328V29.6797Z" fill="white"/>
<path d="M134.488 22.6875H134.82C135.576 22.6875 136.454 22.8112 137.457 23.0586C138.603 23.3581 139.697 23.8854 140.738 24.6406C141.754 25.3568 142.639 26.3464 143.395 27.6094C144.072 28.8203 144.41 30.3112 144.41 32.082V43H135.699V30.2461C135.699 29.3737 135.328 28.5599 134.586 27.8047C133.857 27.0365 132.88 26.6523 131.656 26.6523C130.484 26.6523 129.495 27.0365 128.688 27.8047C127.893 28.5599 127.496 29.3737 127.496 30.2461V43H118.785V23.5664H127.496V25.5781C128.329 24.7839 129.345 24.1133 130.543 23.5664C131.754 23.0195 133.069 22.7266 134.488 22.6875Z" fill="white"/>
<path d="M171.07 23V43H162.359V41.8672C160.68 43 158.596 43.5664 156.109 43.5664C153.635 43.5664 151.376 42.6419 149.332 40.793C147.288 38.944 146.266 36.3333 146.266 32.9609C146.266 31.6589 146.546 30.3763 147.105 29.1133C147.678 27.8503 148.453 26.737 149.43 25.7734C150.432 24.7578 151.63 23.957 153.023 23.3711C154.078 22.9544 155.191 22.7461 156.363 22.7461C156.702 22.7461 157.06 22.7656 157.438 22.8047C158.453 22.8828 159.358 23.0911 160.152 23.4297C160.947 23.7682 161.682 24.1263 162.359 24.5039V23H171.07ZM162.359 29.6797C162.359 28.2083 161.962 27.2253 161.168 26.7305C160.374 26.2227 159.638 25.9688 158.961 25.9688C158.245 25.9688 157.483 26.2227 156.676 26.7305C155.882 27.2253 155.484 28.2083 155.484 29.6797V36.6328C155.484 38.1432 155.882 39.1523 156.676 39.6602C157.483 40.1549 158.245 40.4023 158.961 40.4023C159.638 40.4023 160.374 40.1549 161.168 39.6602C161.962 39.1523 162.359 38.1432 162.359 36.6328V29.6797Z" fill="white"/>
<path d="M191.988 23.1367C191.845 22.8372 191.682 22.5443 191.5 22.2578C190.341 20.4089 188.948 19.4844 187.32 19.4844C185.693 19.4844 184.299 20.4154 183.141 22.2773C181.982 24.1263 181.402 26.3659 181.402 28.9961C181.402 31.6263 181.982 33.8724 183.141 35.7344C184.299 37.5833 185.693 38.5078 187.32 38.5078C188.948 38.5078 190.341 37.5768 191.5 35.7148C192.32 34.4128 192.848 32.9154 193.082 31.2227H185.836V26.7305H201.773V26.75C201.891 27.4792 201.949 28.2279 201.949 28.9961C201.949 32.8633 200.523 36.1641 197.672 38.8984C194.82 41.6328 191.383 43 187.359 43C183.336 43 179.898 41.6328 177.047 38.8984C174.195 36.1641 172.77 32.8633 172.77 28.9961C172.77 25.1289 174.195 21.8281 177.047 19.0938C179.898 16.3594 183.336 14.9922 187.359 14.9922C191.383 14.9922 194.82 16.3594 197.672 19.0938C198.948 20.3307 199.944 21.6784 200.66 23.1367H191.988Z" fill="white"/>
<path d="M228.414 23V43H219.703V41.8672C218.023 43 215.94 43.5664 213.453 43.5664C210.979 43.5664 208.72 42.6419 206.676 40.793C204.632 38.944 203.609 36.3333 203.609 32.9609C203.609 31.6589 203.889 30.3763 204.449 29.1133C205.022 27.8503 205.797 26.737 206.773 25.7734C207.776 24.7578 208.974 23.957 210.367 23.3711C211.422 22.9544 212.535 22.7461 213.707 22.7461C214.046 22.7461 214.404 22.7656 214.781 22.8047C215.797 22.8828 216.702 23.0911 217.496 23.4297C218.29 23.7682 219.026 24.1263 219.703 24.5039V23H228.414ZM219.703 29.6797C219.703 28.2083 219.306 27.2253 218.512 26.7305C217.717 26.2227 216.982 25.9688 216.305 25.9688C215.589 25.9688 214.827 26.2227 214.02 26.7305C213.225 27.2253 212.828 28.2083 212.828 29.6797V36.6328C212.828 38.1432 213.225 39.1523 214.02 39.6602C214.827 40.1549 215.589 40.4023 216.305 40.4023C216.982 40.4023 217.717 40.1549 218.512 39.6602C219.306 39.1523 219.703 38.1432 219.703 36.6328V29.6797Z" fill="white"/>
<path d="M256.012 30.3242V43H247.301V30.2461C247.301 29.3737 246.93 28.5599 246.188 27.8047C245.458 27.0365 244.482 26.6523 243.258 26.6523C242.086 26.6523 241.096 27.0365 240.289 27.8047C239.495 28.5599 239.098 29.3737 239.098 30.2461V43H230.387V23.5664H239.098V25.5781C239.944 24.7839 240.966 24.1133 242.164 23.5664C243.362 23.0195 244.677 22.7266 246.109 22.6875H246.422C247.177 22.6875 248.062 22.8112 249.078 23.0586C250.211 23.3581 251.305 23.8854 252.359 24.6406C253.049 25.1354 253.674 25.7539 254.234 26.4961C255.406 25.0508 256.643 24.0677 257.945 23.5469C259.247 23.013 260.94 22.7266 263.023 22.6875H263.336C264.091 22.6875 264.977 22.8112 265.992 23.0586C267.125 23.3581 268.219 23.8854 269.273 24.6406C270.276 25.3568 271.155 26.3464 271.91 27.6094C272.587 28.8203 272.926 30.3112 272.926 32.082V43H264.215V30.2461C264.215 29.3737 263.844 28.5599 263.102 27.8047C262.372 27.0365 261.396 26.6523 260.172 26.6523C259 26.6523 258.01 27.0365 257.203 27.8047C256.409 28.5599 256.012 29.3997 256.012 30.3242Z" fill="white"/>
<path d="M290.836 30.3438C290.836 29.5495 290.803 28.8724 290.738 28.3125C290.686 27.7396 290.543 27.2383 290.309 26.8086C289.957 26.2617 289.514 25.8516 288.98 25.5781C288.46 25.3047 287.945 25.168 287.438 25.168C286.878 25.168 286.331 25.3047 285.797 25.5781C285.276 25.8516 284.859 26.2617 284.547 26.8086C284.273 27.2383 284.104 27.7396 284.039 28.3125C283.987 28.8724 283.961 29.5495 283.961 30.3438H290.836ZM298.961 35.8125C298.609 36.8672 298.056 37.8568 297.301 38.7812C296.559 39.7057 295.68 40.5 294.664 41.1641C293.648 41.7891 292.522 42.2904 291.285 42.668C290.048 43.0326 288.727 43.2148 287.32 43.2148C285.667 43.2148 284.104 42.9544 282.633 42.4336C281.161 41.8997 279.879 41.1836 278.785 40.2852C277.678 39.3346 276.812 38.2474 276.188 37.0234C275.562 35.7865 275.25 34.4779 275.25 33.0977C275.25 31.6914 275.562 30.3698 276.188 29.1328C276.812 27.8958 277.678 26.8086 278.785 25.8711C279.879 24.9596 281.161 24.2435 282.633 23.7227C284.104 23.1888 285.667 22.9219 287.32 22.9219C289 22.9219 290.576 23.1888 292.047 23.7227C293.518 24.2435 294.801 24.9792 295.895 25.9297C296.962 26.8672 297.815 27.9544 298.453 29.1914C299.104 30.4284 299.43 31.75 299.43 33.1562H283.961V36.9258C283.961 38.5794 284.378 39.6732 285.211 40.207C286.057 40.7279 286.799 40.9883 287.438 40.9883C288.023 40.9883 288.727 40.7279 289.547 40.207C290.367 39.6732 290.777 38.5794 290.777 36.9258V35.8125H298.961Z" fill="white"/>
<path d="M317.027 28.5469C317.001 26.2943 315.875 25.168 313.648 25.168C311.383 25.168 310.25 26.1055 310.25 27.9805C310.25 29.8164 312.841 30.9557 318.023 31.3984C323.206 31.8411 325.797 33.8464 325.797 37.4141C325.784 41.138 321.891 43 314.117 43C306.331 43 302.32 40.7279 302.086 36.1836H310.27C310.283 39.2435 311.422 40.7734 313.688 40.7734C315.953 40.7734 317.086 39.7904 317.086 37.8242C317.086 35.7539 314.573 34.4909 309.547 34.0352C304.521 33.5794 302.008 31.6263 302.008 28.1758C302.008 24.7253 305.94 23 313.805 23C320.367 23 323.948 24.849 324.547 28.5469H317.027Z" fill="white"/>
</svg>
