<svg width="32" height="32" viewBox="0 0 32 32" fill="none" xmlns="http://www.w3.org/2000/svg">
<path d="M15.8596 0.375C1.49946 0.375 0.375 1.49946 0.375 15.8596V16.1404C0.375 30.5005 1.49946 31.625 15.8596 31.625H16.1404C30.5005 31.625 31.625 30.5005 31.625 16.1404V16C31.625 1.50937 30.4906 0.375 16 0.375H15.8596ZM12.875 3.5H19.125C27.8195 3.5 28.5 4.18047 28.5 12.875V19.125C28.5 27.8195 27.8195 28.5 19.125 28.5H12.875C4.18047 28.5 3.5 27.8195 3.5 19.125V12.875C3.5 4.18047 4.18047 3.5 12.875 3.5ZM23.8079 6.625C22.9446 6.62734 22.2477 7.3288 22.25 8.19208C22.2523 9.05536 22.9538 9.75234 23.8171 9.75C24.6804 9.74766 25.3773 9.0462 25.375 8.18292C25.3727 7.31964 24.6712 6.62266 23.8079 6.625ZM15.9817 8.1875C11.6676 8.19766 8.17734 11.7042 8.1875 16.0183C8.19766 20.3324 11.7042 23.8227 16.0183 23.8125C20.3324 23.8023 23.8227 20.2958 23.8125 15.9817C23.8023 11.6676 20.2958 8.17734 15.9817 8.1875ZM15.9893 11.3125C18.5776 11.3062 20.6812 13.401 20.6875 15.9893C20.693 18.5776 18.599 20.6812 16.0107 20.6875C13.4224 20.6938 11.3188 18.5997 11.3125 16.0107C11.3062 13.4224 13.401 11.3188 15.9893 11.3125Z" fill="white"/>
</svg>
