<svg width="24" height="28" viewBox="0 0 24 28" fill="none" xmlns="http://www.w3.org/2000/svg">
<path d="M12 13.8668C12.6889 13.8668 13.2833 13.6168 13.7833 13.1168C14.2833 12.6168 14.5333 12.0223 14.5333 11.3334C14.5333 10.6445 14.2833 10.0501 13.7833 9.5501C13.2833 9.0501 12.6889 8.8001 12 8.8001C11.3111 8.8001 10.7167 9.0501 10.2167 9.5501C9.71666 10.0501 9.46666 10.6445 9.46666 11.3334C9.46666 12.0223 9.71666 12.6168 10.2167 13.1168C10.7167 13.6168 11.3111 13.8668 12 13.8668ZM12 23.9334C14.7556 21.4001 16.7944 19.1001 18.1167 17.0334C19.4389 14.9668 20.1 13.1557 20.1 11.6001C20.1 9.15565 19.3167 7.1501 17.75 5.58343C16.1833 4.01676 14.2667 3.23343 12 3.23343C9.73333 3.23343 7.81666 4.01676 6.25 5.58343C4.68333 7.1501 3.9 9.15565 3.9 11.6001C3.9 13.1557 4.57777 14.9612 5.93333 17.0168C7.28888 19.0723 9.31111 21.3779 12 23.9334ZM12 27.3668C11.7556 27.3668 11.5167 27.3279 11.2833 27.2501C11.05 27.1723 10.8444 27.0556 10.6667 26.9001C7.33333 23.9223 4.85 21.1723 3.21666 18.6501C1.58333 16.1279 0.766663 13.7779 0.766663 11.6001C0.766663 8.08899 1.89444 5.29454 4.15 3.21676C6.40555 1.13899 9.02222 0.100098 12 0.100098C14.9778 0.100098 17.5944 1.13899 19.85 3.21676C22.1056 5.29454 23.2333 8.08899 23.2333 11.6001C23.2333 13.7779 22.4167 16.1279 20.7833 18.6501C19.15 21.1723 16.6667 23.9223 13.3333 26.9001C13.1556 27.0556 12.9556 27.1723 12.7333 27.2501C12.5111 27.3279 12.2667 27.3668 12 27.3668Z" fill="#5CA9F0"/>
</svg>
