<svg width="12" height="16" viewBox="0 0 12 16" fill="none" xmlns="http://www.w3.org/2000/svg">
<path d="M1.81667 15.05C1.38333 15.05 1.01389 14.8973 0.708333 14.5917C0.402778 14.2862 0.25 13.9167 0.25 13.4834V6.55004C0.25 6.11671 0.402778 5.74449 0.708333 5.43337C1.01389 5.12226 1.38333 4.96671 1.81667 4.96671H2.65V3.73337C2.65 2.78893 2.975 1.98615 3.625 1.32504C4.275 0.66393 5.06667 0.333374 6 0.333374C6.93333 0.333374 7.725 0.66393 8.375 1.32504C9.025 1.98615 9.35 2.78893 9.35 3.73337V4.96671H10.1833C10.6167 4.96671 10.9889 5.12226 11.3 5.43337C11.6111 5.74449 11.7667 6.11671 11.7667 6.55004V13.4834C11.7667 13.9167 11.6111 14.2862 11.3 14.5917C10.9889 14.8973 10.6167 15.05 10.1833 15.05H1.81667ZM1.81667 13.4834H10.1833V6.55004H1.81667V13.4834ZM6 11.3C6.35556 11.3 6.65833 11.1778 6.90833 10.9334C7.15833 10.6889 7.28333 10.3945 7.28333 10.05C7.28333 9.71671 7.15833 9.41393 6.90833 9.14171C6.65833 8.86949 6.35556 8.73337 6 8.73337C5.64444 8.73337 5.34167 8.86949 5.09167 9.14171C4.84167 9.41393 4.71667 9.71671 4.71667 10.05C4.71667 10.3945 4.84167 10.6889 5.09167 10.9334C5.34167 11.1778 5.64444 11.3 6 11.3ZM4.21667 4.96671H7.78333V3.73337C7.78333 3.21115 7.61389 2.77782 7.275 2.43337C6.93611 2.08893 6.51111 1.91671 6 1.91671C5.5 1.91671 5.07778 2.08893 4.73333 2.43337C4.38889 2.77782 4.21667 3.21115 4.21667 3.73337V4.96671Z" fill="#55D061"/>
</svg>
