<svg width="50" height="33" viewBox="0 0 50 33" fill="none" xmlns="http://www.w3.org/2000/svg">
<path d="M47.2999 12.0099C46.7199 10.4099 46 8.84992 45.06 7.34992C44.13 5.85992 42.95 4.41992 41.43 3.21992C39.92 2.02992 37.9399 1.12992 35.84 0.959922L35.06 0.919922C34.79 0.929922 34.4899 0.929922 34.2099 0.959922C33.6399 1.01992 33.0999 1.14992 32.59 1.29992C31.5599 1.61992 30.66 2.09992 29.87 2.61992C28.45 3.55992 27.32 4.64992 26.2999 5.76992C26.3099 5.78992 26.33 5.79992 26.34 5.81992L26.5599 6.09992C27.07 6.76992 28.18 8.30992 29.17 9.96992C30.4 8.76992 32 7.31992 32.66 6.89992C33.16 6.58992 33.65 6.34992 34.09 6.21992C34.32 6.15992 34.5299 6.10992 34.7299 6.09992C34.8299 6.07992 34.9199 6.08992 35.0299 6.07992L35.41 6.09992C36.3899 6.18992 37.3499 6.58992 38.2599 7.28992C40.07 8.72992 41.5 11.1799 42.43 13.7699C43.38 16.3699 43.92 19.2099 43.95 21.9499C43.95 23.2599 43.78 24.5199 43.38 25.5599C42.99 26.6099 42 27.0099 40.88 27.0099C39.25 27.0099 38.07 26.3099 37.1199 25.3299C36.0799 24.2399 35.0999 23.0199 34.16 21.7199C33.38 20.6299 32.6199 19.4999 31.9 18.3499C30.6299 16.2899 28.93 13.6799 27.75 11.4999L25 7.34992C24.69 6.95992 24.3899 6.56992 24.0599 6.17992C22.9499 4.91992 21.7199 3.67992 20.1299 2.61992C19.3399 2.09992 18.44 1.61992 17.41 1.29992C16.9 1.14992 16.36 1.01992 15.79 0.959922C15.61 0.939922 15.43 0.929922 15.25 0.929922C15.14 0.929922 15.04 0.919922 14.94 0.919922L14.16 0.959922C12.06 1.12992 10.08 2.02992 8.56995 3.21992C7.04995 4.41992 5.86995 5.85992 4.93995 7.34992C3.99995 8.84992 3.27995 10.4099 2.69995 12.0099C1.56995 15.2099 0.959951 18.5199 0.949951 21.9399C0.959951 23.7199 1.18995 25.5699 1.90995 27.4099C2.60995 29.2099 3.92995 31.1199 6.02995 32.1799C7.05995 32.7099 8.22995 32.9899 9.34995 32.9899C10.58 33.0199 11.75 32.6699 12.68 32.2199C14.55 31.2899 15.84 30.0599 17.01 28.8199C19.32 26.3099 21.03 23.5899 22.61 20.8199C23.05 20.0599 23.4699 19.2799 23.8799 18.4899C23.67 18.0799 23.4599 17.6499 23.24 17.1999C22.6199 16.1699 21.85 14.9499 21.29 14.0999C20.46 15.5999 19.5999 17.0599 18.7099 18.5099C17.1199 21.0299 15.41 23.4799 13.5 25.4899C12.55 26.4699 11.5 27.3299 10.58 27.7399C10.11 27.9399 9.74995 28.0099 9.43995 27.9899C9.00995 27.9899 8.64995 27.8899 8.30995 27.7099C7.63995 27.3599 7.00995 26.6099 6.61995 25.5599C6.21995 24.5199 6.04995 23.2599 6.04995 21.9499C6.07995 19.2099 6.61995 16.3699 7.56995 13.7699C8.49995 11.1799 9.92995 8.72992 11.74 7.28992C12.65 6.58992 13.61 6.18992 14.59 6.09992L14.97 6.07992C15.08 6.08992 15.17 6.07992 15.27 6.09992C15.47 6.10992 15.68 6.15992 15.91 6.21992C16.17 6.29992 16.45 6.40992 16.74 6.55992C16.94 6.65992 17.1399 6.76992 17.34 6.89992C18.34 7.53992 19.33 8.47992 20.26 9.51992C20.9799 10.3299 21.67 11.2299 22.36 12.1499L25 16.2399C25.75 17.7899 26.5299 19.3299 27.3899 20.8199C28.9699 23.5899 30.68 26.3099 32.99 28.8199C33.67 29.5499 34.3999 30.2699 35.2599 30.9199C35.8699 31.3999 36.54 31.8299 37.32 32.2199C38.25 32.6699 39.42 33.0199 40.65 32.9899C41.77 32.9899 42.94 32.7099 43.97 32.1799C46.07 31.1199 47.3899 29.2099 48.09 27.4099C48.81 25.5699 49.04 23.7199 49.0499 21.9399C49.04 18.5199 48.43 15.2099 47.2999 12.0099Z" fill="white"/>
</svg>
