<svg width="26" height="26" viewBox="0 0 26 26" fill="none" xmlns="http://www.w3.org/2000/svg">
<path d="M23.5333 25.7666C20.7111 25.7666 17.9111 25.0777 15.1333 23.7C12.3555 22.3222 9.85555 20.5277 7.63332 18.3166C5.4111 16.1055 3.6111 13.6055 2.23332 10.8166C0.855545 8.02775 0.166656 5.2333 0.166656 2.4333C0.166656 1.78886 0.388879 1.24441 0.833323 0.799967C1.27777 0.355523 1.82221 0.133301 2.46666 0.133301H7.13332C7.82221 0.133301 8.38332 0.311079 8.81666 0.666634C9.24999 1.02219 9.54443 1.54441 9.69999 2.2333L10.6 5.89997C10.7111 6.49997 10.7 7.01663 10.5667 7.44997C10.4333 7.8833 10.1889 8.25552 9.83332 8.56663L6.36666 11.7333C7.47777 13.4889 8.67777 15.0055 9.96666 16.2833C11.2555 17.5611 12.7 18.6444 14.3 19.5333L17.6333 16.1666C18.0333 15.7666 18.4611 15.4944 18.9167 15.35C19.3722 15.2055 19.8778 15.2 20.4333 15.3333L23.7 16.1333C24.3889 16.3111 24.9167 16.6222 25.2833 17.0666C25.65 17.5111 25.8333 18.0777 25.8333 18.7666V23.4333C25.8333 24.1 25.6111 24.6555 25.1667 25.1C24.7222 25.5444 24.1778 25.7666 23.5333 25.7666ZM4.79999 8.96663L7.46666 6.46663L6.73332 3.26663H3.36666C3.32221 4.02219 3.41666 4.86108 3.64999 5.7833C3.88332 6.70552 4.26666 7.76663 4.79999 8.96663ZM22.6667 22.5666V19.1333L19.7333 18.4666L17.1667 21.1333C17.9667 21.5333 18.85 21.8555 19.8167 22.1C20.7833 22.3444 21.7333 22.5 22.6667 22.5666Z" fill="#5CA9F0"/>
</svg>
