<svg width="30" height="23" viewBox="0 0 30 23" fill="none" xmlns="http://www.w3.org/2000/svg">
<path d="M1.9375 22.1875C1.52083 22.1875 1.17187 22.0469 0.890625 21.7656C0.609375 21.4844 0.46875 21.1354 0.46875 20.7188V18.4062C0.46875 17.5312 0.692708 16.7396 1.14062 16.0312C1.58854 15.3229 2.21875 14.7813 3.03125 14.4063C4.59375 13.7396 6.01562 13.25 7.29688 12.9375C8.57812 12.625 9.89583 12.4687 11.25 12.4688C12.6458 12.4688 13.974 12.6198 15.2344 12.9219C16.4948 13.224 17.9062 13.7188 19.4688 14.4063C20.2604 14.7604 20.8906 15.2917 21.3594 16C21.8281 16.7083 22.0625 17.5104 22.0625 18.4062V20.7188C22.0625 21.1354 21.9219 21.4844 21.6406 21.7656C21.3594 22.0469 21.0104 22.1875 20.5938 22.1875H1.9375ZM23.3438 22.1875C23.5938 22.0833 23.8125 21.8958 24 21.625C24.1875 21.3542 24.2812 21.0313 24.2812 20.6562V18.4688C24.2812 17.1146 23.9531 15.974 23.2969 15.0469C22.6406 14.1198 21.75 13.2813 20.625 12.5313C21.8958 12.7188 23.099 12.9635 24.2344 13.2656C25.3698 13.5677 26.3125 13.9062 27.0625 14.2812C27.8125 14.6771 28.4115 15.25 28.8594 16C29.3073 16.75 29.5312 17.6042 29.5312 18.5625V20.7188C29.5312 21.1354 29.3906 21.4844 29.1094 21.7656C28.8281 22.0469 28.4792 22.1875 28.0625 22.1875H23.3438ZM11.25 10.5625C9.75 10.5625 8.53125 10.0937 7.59375 9.15625C6.65625 8.21875 6.1875 6.98958 6.1875 5.46875C6.1875 3.96875 6.65625 2.75 7.59375 1.8125C8.53125 0.875 9.75 0.40625 11.25 0.40625C12.75 0.40625 13.974 0.875 14.9219 1.8125C15.8698 2.75 16.3438 3.96875 16.3438 5.46875C16.3438 6.98958 15.8698 8.21875 14.9219 9.15625C13.974 10.0937 12.75 10.5625 11.25 10.5625ZM23.6562 5.46875C23.6562 6.96875 23.1823 8.19271 22.2344 9.14062C21.2865 10.0885 20.0625 10.5625 18.5625 10.5625C18.3125 10.5625 18.0573 10.5417 17.7969 10.5C17.5365 10.4583 17.2604 10.3854 16.9688 10.2812C17.5104 9.71875 17.9115 9.03125 18.1719 8.21875C18.4323 7.40625 18.5625 6.5 18.5625 5.5C18.5625 4.47917 18.4323 3.57812 18.1719 2.79688C17.9115 2.01562 17.5104 1.3125 16.9688 0.6875C17.2188 0.604167 17.4792 0.536458 17.75 0.484375C18.0208 0.432292 18.2917 0.40625 18.5625 0.40625C20.0625 0.40625 21.2865 0.880208 22.2344 1.82812C23.1823 2.77604 23.6562 3.98958 23.6562 5.46875ZM3.40625 19.25H19.0938V18.5312C19.0938 18.2188 18.9948 17.9115 18.7969 17.6094C18.599 17.3073 18.3542 17.0938 18.0625 16.9688C16.6458 16.3646 15.4583 15.9583 14.5 15.75C13.5417 15.5417 12.4583 15.4375 11.25 15.4375C10.0833 15.4375 9 15.5417 8 15.75C7 15.9583 5.80208 16.3646 4.40625 16.9688C4.13542 17.0938 3.90104 17.3073 3.70312 17.6094C3.50521 17.9115 3.40625 18.2188 3.40625 18.5312V19.25ZM11.25 7.96875C11.9792 7.96875 12.5781 7.73437 13.0469 7.26562C13.5156 6.79687 13.75 6.20833 13.75 5.5C13.75 4.77083 13.5156 4.17187 13.0469 3.70312C12.5781 3.23437 11.9896 3 11.2812 3C10.5521 3 9.95312 3.22917 9.48438 3.6875C9.01562 4.14583 8.78125 4.73958 8.78125 5.46875C8.78125 6.19792 9.01042 6.79687 9.46875 7.26562C9.92708 7.73437 10.5208 7.96875 11.25 7.96875Z" fill="#5CA9F0"/>
</svg>
