<svg width="20" height="20" viewBox="0 0 20 20" fill="none" xmlns="http://www.w3.org/2000/svg">
<path d="M0 10C0 4.47715 4.47715 0 10 0C15.5228 0 20 4.47715 20 10C20 15.5228 15.5228 20 10 20C4.47715 20 0 15.5228 0 10Z" fill="#5A5D73"/>
<path d="M10.192 4.72C11.28 4.72 12.1493 5.01867 12.8 5.616C13.4613 6.21333 13.792 7.02933 13.792 8.064C13.792 9.14133 13.4507 9.952 12.768 10.496C12.0853 11.04 11.1787 11.312 10.048 11.312L9.984 12.576H8.4L8.32 10.064H8.848C9.88267 10.064 10.672 9.92533 11.216 9.648C11.7707 9.37067 12.048 8.84267 12.048 8.064C12.048 7.49867 11.8827 7.056 11.552 6.736C11.232 6.416 10.784 6.256 10.208 6.256C9.632 6.256 9.17867 6.41067 8.848 6.72C8.51733 7.02933 8.352 7.46133 8.352 8.016H6.64C6.64 7.376 6.784 6.80533 7.072 6.304C7.36 5.80267 7.77067 5.41333 8.304 5.136C8.848 4.85867 9.47733 4.72 10.192 4.72ZM9.168 16.112C8.83733 16.112 8.56 16 8.336 15.776C8.112 15.552 8 15.2747 8 14.944C8 14.6133 8.112 14.336 8.336 14.112C8.56 13.888 8.83733 13.776 9.168 13.776C9.488 13.776 9.76 13.888 9.984 14.112C10.208 14.336 10.32 14.6133 10.32 14.944C10.32 15.2747 10.208 15.552 9.984 15.776C9.76 16 9.488 16.112 9.168 16.112Z" fill="white"/>
</svg>
