<svg width="26" height="26" viewBox="0 0 26 26" fill="none" xmlns="http://www.w3.org/2000/svg">
<path d="M23.5 25.9L14.5333 16.9667C13.8889 17.4778 13.1278 17.8778 12.25 18.1667C11.3722 18.4555 10.4222 18.6 9.4 18.6C6.84445 18.6 4.67778 17.7111 2.9 15.9333C1.12223 14.1555 0.233337 12.0111 0.233337 9.49999C0.233337 6.98888 1.12223 4.84444 2.9 3.06666C4.67778 1.28888 6.83334 0.399994 9.36667 0.399994C11.8778 0.399994 14.0167 1.28888 15.7833 3.06666C17.55 4.84444 18.4333 6.98888 18.4333 9.49999C18.4333 10.5 18.2944 11.4278 18.0167 12.2833C17.7389 13.1389 17.3222 13.9444 16.7667 14.7L25.7667 23.6333L23.5 25.9ZM9.36667 15.4667C11.0333 15.4667 12.4389 14.8833 13.5833 13.7167C14.7278 12.55 15.3 11.1444 15.3 9.49999C15.3 7.83333 14.7278 6.42222 13.5833 5.26666C12.4389 4.11111 11.0333 3.53333 9.36667 3.53333C7.7 3.53333 6.28334 4.11111 5.11667 5.26666C3.95 6.42222 3.36667 7.83333 3.36667 9.49999C3.36667 11.1444 3.95 12.55 5.11667 13.7167C6.28334 14.8833 7.7 15.4667 9.36667 15.4667Z" fill="#602901"/>
</svg>
