<svg width="28" height="28" viewBox="0 0 28 28" fill="none" xmlns="http://www.w3.org/2000/svg">
<path d="M14.0938 19.3125C15.5729 19.3125 16.8281 18.7969 17.8594 17.7656C18.8906 16.7344 19.4063 15.4792 19.4063 14C19.4063 12.5208 18.8906 11.2656 17.8594 10.2344C16.8281 9.20312 15.5729 8.6875 14.0938 8.6875C12.6146 8.6875 11.3594 9.20312 10.3281 10.2344C9.29688 11.2656 8.78125 12.5208 8.78125 14C8.78125 15.4792 9.29688 16.7344 10.3281 17.7656C11.3594 18.7969 12.6146 19.3125 14.0938 19.3125ZM14.0938 15.25C13.7604 15.25 13.4688 15.1302 13.2188 14.8906C12.9688 14.651 12.8438 14.3542 12.8438 14C12.8438 13.6458 12.9688 13.349 13.2188 13.1094C13.4688 12.8698 13.7604 12.75 14.0938 12.75C14.4479 12.75 14.7448 12.8698 14.9844 13.1094C15.224 13.349 15.3438 13.6458 15.3438 14C15.3438 14.3542 15.224 14.651 14.9844 14.8906C14.7448 15.1302 14.4479 15.25 14.0938 15.25ZM22.1875 24.2812C21.0208 25.3021 19.75 26.0573 18.375 26.5469C17 27.0365 15.5625 27.2812 14.0625 27.2812C12.2292 27.2812 10.5052 26.9323 8.89062 26.2344C7.27604 25.5365 5.86979 24.5885 4.67187 23.3906C3.47396 22.1927 2.53125 20.7865 1.84375 19.1719C1.15625 17.5573 0.8125 15.8333 0.8125 14C0.8125 12.1667 1.16146 10.4427 1.85937 8.82812C2.55729 7.21354 3.50521 5.80729 4.70312 4.60938C5.90104 3.41146 7.30729 2.45833 8.92188 1.75C10.5365 1.04167 12.2604 0.6875 14.0938 0.6875C16.5938 0.6875 18.875 1.32812 20.9375 2.60938C23 3.89062 24.625 5.59375 25.8125 7.71875C26.0417 8.07292 26.0833 8.44792 25.9375 8.84375C25.7917 9.23958 25.4896 9.52083 25.0312 9.6875C24.6979 9.8125 24.349 9.8125 23.9844 9.6875C23.6198 9.5625 23.3333 9.33333 23.125 9C22.125 7.375 20.8438 6.07812 19.2812 5.10938C17.7188 4.14062 15.9896 3.65625 14.0938 3.65625C11.2812 3.65625 8.85417 4.67188 6.8125 6.70312C4.77083 8.73438 3.75 11.1667 3.75 14C3.75 16.8333 4.76563 19.2656 6.79688 21.2969C8.82813 23.3281 11.2604 24.3438 14.0938 24.3438C15.1979 24.3438 16.3177 24.1042 17.4531 23.625C18.5885 23.1458 19.5833 22.5833 20.4375 21.9375C20.8542 21.7083 21.2708 21.6458 21.6875 21.75C22.1042 21.8542 22.4167 22.1042 22.625 22.5C22.7917 22.8125 22.8281 23.1458 22.7344 23.5C22.6406 23.8542 22.4583 24.1146 22.1875 24.2812ZM25.625 21.9062C25.25 21.9062 24.9427 21.7812 24.7031 21.5312C24.4635 21.2812 24.3437 20.9792 24.3437 20.625V12.9688C24.3437 12.6146 24.4688 12.3125 24.7188 12.0625C24.9688 11.8125 25.2812 11.6875 25.6562 11.6875C26.0104 11.6875 26.3125 11.8125 26.5625 12.0625C26.8125 12.3125 26.9375 12.6146 26.9375 12.9688V20.625C26.9375 20.9792 26.8125 21.2812 26.5625 21.5312C26.3125 21.7812 26 21.9062 25.625 21.9062ZM25.7188 26.75C25.3021 26.75 24.9479 26.6042 24.6562 26.3125C24.3646 26.0208 24.2187 25.6667 24.2187 25.25C24.2187 24.8125 24.3646 24.4531 24.6562 24.1719C24.9479 23.8906 25.3021 23.75 25.7188 23.75C26.1562 23.75 26.5156 23.8958 26.7969 24.1875C27.0781 24.4792 27.2188 24.8333 27.2188 25.25C27.2188 25.6667 27.0729 26.0208 26.7812 26.3125C26.4896 26.6042 26.1354 26.75 25.7188 26.75ZM22.1875 24.2812C22.4583 24.1146 22.6406 23.8542 22.7344 23.5C22.8281 23.1458 22.7917 22.8125 22.625 22.5C22.4167 22.1042 22.1042 21.8542 21.6875 21.75C21.2708 21.6458 20.8542 21.7083 20.4375 21.9375C19.5833 22.5833 18.5885 23.1458 17.4531 23.625C16.3177 24.1042 15.1979 24.3438 14.0938 24.3438C11.2604 24.3438 8.82813 23.3281 6.79688 21.2969C4.76563 19.2656 3.75 16.8333 3.75 14C3.75 11.1667 4.77083 8.73438 6.8125 6.70312C8.85417 4.67188 11.2812 3.65625 14.0938 3.65625C15.9896 3.65625 17.7188 4.14062 19.2812 5.10938C20.8438 6.07812 22.125 7.375 23.125 9C23.3333 9.33333 23.6146 9.5625 23.9688 9.6875C24.3229 9.8125 24.6667 9.8125 25 9.6875C25.4583 9.52083 25.7656 9.23958 25.9219 8.84375C26.0781 8.44792 26.0417 8.07292 25.8125 7.71875C26.0625 8.09375 26.2448 8.42708 26.3594 8.71875C26.474 9.01042 26.625 9.375 26.8125 9.8125H25.4062C24.5729 9.79167 23.8698 10.0729 23.2969 10.6562C22.724 11.2396 22.4375 11.9375 22.4375 12.75V24.1875L22.1875 24.2812Z" fill="#5CA9F0"/>
</svg>
