<svg width="50" height="36" viewBox="0 0 50 36" fill="none" xmlns="http://www.w3.org/2000/svg">
<path d="M9.84379 35.8646C7.34379 35.8646 5.25178 34.9792 3.56775 33.2083C1.88372 31.4375 1.02435 29.3715 0.989624 27.0104C0.989624 26.6979 1.00699 26.342 1.04171 25.9427C1.07643 25.5434 1.14587 25.1875 1.25004 24.875L5.62504 7.32291C6.1806 5.23958 7.31775 3.52083 9.0365 2.16666C10.7552 0.812498 12.691 0.135414 14.8438 0.135414H35.1563C37.3091 0.135414 39.2448 0.812498 40.9636 2.16666C42.6823 3.52083 43.8368 5.23958 44.4271 7.32291L48.8021 24.8229C48.8716 25.2049 48.9323 25.5868 48.9844 25.9687C49.0365 26.3507 49.0625 26.7153 49.0625 27.0625C49.0625 29.4583 48.2118 31.5243 46.5105 33.2604C44.8091 34.9965 42.691 35.8646 40.1563 35.8646C38.4896 35.8646 36.9271 35.4219 35.4688 34.5365C34.0105 33.651 32.9167 32.4444 32.1875 30.9167L30.7292 27.8958C30.6598 27.7917 30.5643 27.7049 30.4427 27.6354C30.3212 27.566 30.1563 27.5312 29.948 27.5312H20.0521C19.8785 27.5312 19.7223 27.566 19.5834 27.6354C19.4445 27.7049 19.3403 27.7917 19.2709 27.8958L17.8125 30.9167C17.0834 32.4444 15.9983 33.651 14.5573 34.5365C13.1164 35.4219 11.5452 35.8646 9.84379 35.8646ZM10 30.9688C10.6598 30.9688 11.2934 30.7865 11.9011 30.4219C12.5087 30.0573 13.0209 29.5104 13.4375 28.7812L14.8959 25.8125C15.3473 24.8056 16.0417 24.0243 16.9792 23.4687C17.9167 22.9132 18.941 22.6354 20.0521 22.6354H29.948C31.0591 22.6354 32.0747 22.9219 32.9948 23.4948C33.915 24.0677 34.6528 24.8403 35.2084 25.8125L36.6667 28.7812C37.0834 29.5104 37.5868 30.0573 38.1771 30.4219C38.7674 30.7865 39.3924 30.9688 40.0521 30.9688C41.0591 30.9688 41.9792 30.6128 42.8125 29.901C43.6459 29.1892 44.0799 28.2604 44.1146 27.1146C44.1146 26.9757 44.0973 26.8021 44.0625 26.5938C44.0278 26.3854 43.9931 26.1944 43.9584 26.0208L39.5834 8.57292C39.3403 7.53125 38.8108 6.68055 37.9948 6.02083C37.1789 5.36111 36.2327 5.03125 35.1563 5.03125H14.8438C13.7674 5.03125 12.8212 5.36111 12.0052 6.02083C11.1893 6.68055 10.6598 7.53125 10.4167 8.57292L6.04171 26.0208C6.07643 25.9861 6.02435 26.3333 5.88546 27.0625C5.88546 28.2083 6.3108 29.1458 7.1615 29.875C8.01219 30.6042 8.95837 30.9688 10 30.9688ZM28.125 15.3958C27.7084 15.3958 27.3438 15.2396 27.0313 14.9271C26.7188 14.6146 26.5625 14.2326 26.5625 13.7812C26.5625 13.3646 26.7188 13.0087 27.0313 12.7135C27.3438 12.4184 27.7257 12.2708 28.1771 12.2708C28.5938 12.2708 28.9497 12.4184 29.2448 12.7135C29.54 13.0087 29.6875 13.3819 29.6875 13.8333C29.6875 14.25 29.54 14.6146 29.2448 14.9271C28.9497 15.2396 28.5764 15.3958 28.125 15.3958ZM32.2917 11.2292C31.875 11.2292 31.5105 11.0729 31.198 10.7604C30.8855 10.4479 30.7292 10.066 30.7292 9.61458C30.7292 9.19792 30.8855 8.84201 31.198 8.54687C31.5105 8.25173 31.8924 8.10416 32.3438 8.10416C32.7605 8.10416 33.1164 8.25173 33.4115 8.54687C33.7066 8.84201 33.8542 9.21528 33.8542 9.66666C33.8542 10.0833 33.7066 10.4479 33.4115 10.7604C33.1164 11.0729 32.7431 11.2292 32.2917 11.2292ZM32.2917 19.5625C31.875 19.5625 31.5105 19.4062 31.198 19.0937C30.8855 18.7812 30.7292 18.3993 30.7292 17.9479C30.7292 17.5312 30.8855 17.1753 31.198 16.8802C31.5105 16.5851 31.8924 16.4375 32.3438 16.4375C32.7605 16.4375 33.1164 16.5851 33.4115 16.8802C33.7066 17.1753 33.8542 17.5486 33.8542 18C33.8542 18.4167 33.7066 18.7812 33.4115 19.0937C33.1164 19.4062 32.7431 19.5625 32.2917 19.5625ZM36.4584 15.3958C36.0417 15.3958 35.6771 15.2396 35.3646 14.9271C35.0521 14.6146 34.8959 14.2326 34.8959 13.7812C34.8959 13.3646 35.0521 13.0087 35.3646 12.7135C35.6771 12.4184 36.0591 12.2708 36.5105 12.2708C36.9271 12.2708 37.283 12.4184 37.5782 12.7135C37.8733 13.0087 38.0209 13.3819 38.0209 13.8333C38.0209 14.25 37.8733 14.6146 37.5782 14.9271C37.283 15.2396 36.9098 15.3958 36.4584 15.3958ZM17.7084 18.7812C17.3612 18.7812 17.0573 18.651 16.7969 18.3906C16.5365 18.1302 16.4063 17.8264 16.4063 17.4792V15.1354H14.0625C13.7153 15.1354 13.4115 15.0052 13.1511 14.7448C12.8907 14.4844 12.7605 14.1806 12.7605 13.8333C12.7605 13.4861 12.8907 13.1823 13.1511 12.9219C13.4115 12.6615 13.7153 12.5312 14.0625 12.5312H16.4063V10.1875C16.4063 9.84028 16.5365 9.53646 16.7969 9.27604C17.0573 9.01562 17.3612 8.88541 17.7084 8.88541C18.0556 8.88541 18.3594 9.01562 18.6198 9.27604C18.8802 9.53646 19.0105 9.84028 19.0105 10.1875V12.5312H21.3542C21.7014 12.5312 22.0052 12.6615 22.2657 12.9219C22.5261 13.1823 22.6563 13.4861 22.6563 13.8333C22.6563 14.1806 22.5261 14.4844 22.2657 14.7448C22.0052 15.0052 21.7014 15.1354 21.3542 15.1354H19.0105V17.4792C19.0105 17.8264 18.8802 18.1302 18.6198 18.3906C18.3594 18.651 18.0556 18.7812 17.7084 18.7812Z" fill="white"/>
</svg>
