<svg width="26" height="27" viewBox="0 0 26 27" fill="none" xmlns="http://www.w3.org/2000/svg">
<path d="M5.4335 26.8333C4.56683 26.8333 3.82239 26.5278 3.20016 25.9167C2.57794 25.3055 2.26683 24.5667 2.26683 23.7V5.26666H1.90016C1.45572 5.26666 1.0835 5.11666 0.783496 4.81666C0.483496 4.51666 0.333496 4.14444 0.333496 3.69999C0.333496 3.25555 0.483496 2.88333 0.783496 2.58333C1.0835 2.28333 1.45572 2.13333 1.90016 2.13333H8.06683C8.06683 1.68888 8.21683 1.3111 8.51683 0.999992C8.81683 0.688881 9.18905 0.533325 9.6335 0.533325H16.3668C16.8113 0.533325 17.1891 0.688881 17.5002 0.999992C17.8113 1.3111 17.9668 1.68888 17.9668 2.13333H24.1002C24.5446 2.13333 24.9168 2.28333 25.2168 2.58333C25.5168 2.88333 25.6668 3.25555 25.6668 3.69999C25.6668 4.14444 25.5168 4.51666 25.2168 4.81666C24.9168 5.11666 24.5446 5.26666 24.1002 5.26666H23.7335V23.7C23.7335 24.5667 23.4224 25.3055 22.8002 25.9167C22.1779 26.5278 21.4335 26.8333 20.5668 26.8333H5.4335ZM5.4335 5.26666V23.7H20.5668V5.26666H5.4335ZM8.80016 19.8333C8.80016 20.1667 8.92794 20.4611 9.1835 20.7167C9.43905 20.9722 9.7335 21.1 10.0668 21.1C10.4224 21.1 10.7279 20.9722 10.9835 20.7167C11.2391 20.4611 11.3668 20.1667 11.3668 19.8333V9.09999C11.3668 8.76666 11.2335 8.46666 10.9668 8.19999C10.7002 7.93333 10.4002 7.79999 10.0668 7.79999C9.71127 7.79999 9.41127 7.93333 9.16683 8.19999C8.92239 8.46666 8.80016 8.76666 8.80016 9.09999V19.8333ZM14.6335 19.8333C14.6335 20.1667 14.7668 20.4611 15.0335 20.7167C15.3002 20.9722 15.6002 21.1 15.9335 21.1C16.2891 21.1 16.5946 20.9722 16.8502 20.7167C17.1057 20.4611 17.2335 20.1667 17.2335 19.8333V9.09999C17.2335 8.76666 17.1057 8.46666 16.8502 8.19999C16.5946 7.93333 16.2891 7.79999 15.9335 7.79999C15.5779 7.79999 15.2724 7.93333 15.0168 8.19999C14.7613 8.46666 14.6335 8.76666 14.6335 9.09999V19.8333Z" fill="#5CA9F0"/>
</svg>
